<svg xmlns="http://www.w3.org/2000/svg" xmlns:xlink="http://www.w3.org/1999/xlink" version="1.1" width="184.053" height="161.967" viewBox="0 0 184.053 161.967">
<defs>
<clipPath id="clip_0">
<path transform="matrix(1,0,0,-1,-206.139,679.92398)" d="M0 0H595.28V841.89H0Z"/>
</clipPath>
<clipPath id="clip_1">
<path transform="matrix(1,0,0,-1,-206.139,679.92398)" d="M9.640015 48.23912H585.64V793.65097H9.640015Z"/>
</clipPath>
</defs>
<g clip-path="url(#clip_0)">
<g clip-path="url(#clip_1)">
<text xml:space="preserve" transform="matrix(.9411765 0 -0 .9411765 -196.499 631.6848)" font-size="11.9552" font-family="NimbusRomNo9L" font-weight="bold"><tspan y="-710.037" x="108 128.58686 137.2185 142.52661 146.50769 149.83124 155.80884 165.44474 172.09183 178.73892 184.71652 190.02463">AActionSpace</tspan></text>
<text xml:space="preserve" transform="matrix(.9411765 0 -0 .9411765 -196.499 631.6848)" font-size="9.9626" font-family="NimbusRomNo9L"><tspan y="-671.353" x="233.722 239.01213 243.43553 248.41683 251.18643 258.1005 263.0818 268.9398 276.13279 280.55619 283.32579 286.09538 291.07667 298.5486 304.08784 309.06913 313.49253 317.91593 324.83 329.81129 335.61949 344.22718 348.65058 353.63188 360.82487 364.1424 368.5658 373.5471">Table3:ActionSpaceofWebArena</tspan></text>
<path transform="matrix(.9411765,0,0,-.9411765,7.266693,3.2782593)" stroke-width=".797" stroke-linecap="butt" stroke-miterlimit="10" stroke-linejoin="miter" fill="none" stroke="#000000" d="M0 0H178.998"/>
<text xml:space="preserve" transform="matrix(.9411765 0 -0 .9411765 -196.499 631.6848)" font-size="9.9626" font-family="NimbusRomNo9L" font-weight="bold"><tspan y="-656.733" x="216.501 223.694 228.1174 231.43495 234.20456 239.18585 247.2157 253.12352 258.10484 263.64405">ActionType</tspan></text>
<path transform="matrix(.9411765,0,0,-.9411765,91.8248,16.663636)" stroke-width=".398" stroke-linecap="butt" stroke-miterlimit="10" stroke-linejoin="miter" fill="none" stroke="#000000" d="M0 0V10.909"/>
<text xml:space="preserve" transform="matrix(.9411765 0 -0 .9411765 -196.499 631.6848)" font-size="9.9626" font-family="NimbusRomNo9L" font-weight="bold"><tspan y="-656.733" x="312.521 319.714 324.1374 328.01286 332.43626 336.85966 339.62925 345.16847 348.486 351.25559 356.23689">Description</tspan></text>
<path transform="matrix(.9411765,0,0,-.9411765,7.266693,18.585572)" stroke-width=".498" stroke-linecap="butt" stroke-miterlimit="10" stroke-linejoin="miter" fill="none" stroke="#000000" d="M0 0H178.998"/>
<text xml:space="preserve" transform="matrix(.9411765 0 -0 .9411765 -196.499 631.6848)" font-size="9.9626" font-family="SFTT1000"><tspan y="-640.618" x="216.501 221.73038 226.95975 232.18912">noop</tspan></text>
<path transform="matrix(.9411765,0,0,-.9411765,91.8248,31.829773)" stroke-width=".398" stroke-linecap="butt" stroke-miterlimit="10" stroke-linejoin="miter" fill="none" stroke="#000000" d="M0 0V10.909"/>
<text xml:space="preserve" transform="matrix(.9411765 0 -0 .9411765 -196.499 631.6848)" font-size="9.9626" font-family="NimbusRomNo9L"><tspan y="-640.618" x="312.521 319.714 327.18595 332.16725 337.14854 339.91813 344.8994 347.669 352.6503">Donothing</tspan></text>
<text xml:space="preserve" transform="matrix(.9411765 0 -0 .9411765 -196.499 631.6848)" font-size="9.9626" font-family="SFTT1000"><tspan y="-629.709" x="216.501 221.73038 226.95975 232.18912 237.41849 242.64786 247.87723 253.1066 258.33598 263.56535 268.7947">click(elem)</tspan></text>
<path transform="matrix(.9411765,0,0,-.9411765,91.8248,42.097047)" stroke-width=".398" stroke-linecap="butt" stroke-miterlimit="10" stroke-linejoin="miter" fill="none" stroke="#000000" d="M0 0V10.909"/>
<text xml:space="preserve" transform="matrix(.9411765 0 -0 .9411765 -196.499 631.6848)" font-size="9.9626" font-family="NimbusRomNo9L"><tspan y="-629.709" x="312.521 319.16606 321.93565 324.70524 329.12864 336.6006 341.024 346.28425 350.70765 358.1796 362.603 365.3726 369.796 377.5469 381.9703 386.9516">Clickatanelement</tspan></text>
<text xml:space="preserve" transform="matrix(.9411765 0 -0 .9411765 -196.499 631.6848)" font-size="9.9626" font-family="SFTT1000"><tspan y="-618.8" x="216.501 221.73038 226.95975 232.18912 237.41849 242.64786 247.87723 253.1066 258.33598 263.56535 268.7947">hover(elem)</tspan></text>
<path transform="matrix(.9411765,0,0,-.9411765,91.8248,52.365236)" stroke-width=".398" stroke-linecap="butt" stroke-miterlimit="10" stroke-linejoin="miter" fill="none" stroke="#000000" d="M0 0V10.909"/>
<text xml:space="preserve" transform="matrix(.9411765 0 -0 .9411765 -196.499 631.6848)" font-size="9.9626" font-family="NimbusRomNo9L"><tspan y="-618.8" x="312.521 319.714 324.54585 329.3777 333.8011 339.60929 344.59059 352.06254 356.48594 363.9579 368.3813 371.15089 375.57429 383.3252 387.7486 392.7299">Hoveronanelement</tspan></text>
<text xml:space="preserve" transform="matrix(.9411765 0 -0 .9411765 -196.499 631.6848)" font-size="9.9626" font-family="SFTT1000"><tspan y="-607.891" x="216.501 221.73038 226.95975 232.18912 237.41849 242.64786 247.87723 253.1066 258.33598 263.56535 274.0251 279.25447 284.48384 289.7132 294.94258">type(elem,text)</tspan></text>
<path transform="matrix(.9411765,0,0,-.9411765,91.8248,62.63257)" stroke-width=".398" stroke-linecap="butt" stroke-miterlimit="10" stroke-linejoin="miter" fill="none" stroke="#000000" d="M0 0V10.909"/>
<text xml:space="preserve" transform="matrix(.9411765 0 -0 .9411765 -196.499 631.6848)" font-size="9.9626" font-family="NimbusRomNo9L"><tspan y="-607.891" x="312.521 317.81117 322.79246 327.77375 334.6878 337.4574 344.92936 349.35276 356.8247 361.2481 364.0177 368.4411 376.19203 380.61543 385.5967">Typetoanelement</tspan></text>
<text xml:space="preserve" transform="matrix(.9411765 0 -0 .9411765 -196.499 631.6848)" font-size="9.9626" font-family="SFTT1000"><tspan y="-596.982" x="216.501 221.73038 226.95975 232.18912 237.41849 242.64786 247.87723 253.1066 258.33598 263.56535 268.7947 274.02409 279.25346 284.48283 289.7122">press(key_comb)</tspan></text>
<path transform="matrix(.9411765,0,0,-.9411765,91.8248,72.89984)" stroke-width=".398" stroke-linecap="butt" stroke-miterlimit="10" stroke-linejoin="miter" fill="none" stroke="#000000" d="M0 0V10.909"/>
<text xml:space="preserve" transform="matrix(.9411765 0 -0 .9411765 -196.499 631.6848)" font-size="9.9626" font-family="NimbusRomNo9L"><tspan y="-596.982" x="312.521 318.0602 321.37776 325.80116 329.6766 336.04273 342.9568 347.83845 352.1124 359.58436 364.00776 368.98905 376.73997">Pressakeycomb</tspan></text>
<text xml:space="preserve" transform="matrix(.9411765 0 -0 .9411765 -196.499 631.6848)" font-size="9.9626" font-family="SFTT1000"><tspan y="-586.073" x="216.501 221.73038 226.95975 232.18912 237.41849 242.64786 247.87723 253.1066 258.33598 263.56535 268.7947">scroll(dir)</tspan></text>
<path transform="matrix(.9411765,0,0,-.9411765,91.8248,83.167179)" stroke-width=".398" stroke-linecap="butt" stroke-miterlimit="10" stroke-linejoin="miter" fill="none" stroke="#000000" d="M0 0V10.909"/>
<text xml:space="preserve" transform="matrix(.9411765 0 -0 .9411765 -196.499 631.6848)" font-size="9.9626" font-family="NimbusRomNo9L"><tspan y="-586.073" x="312.521 318.0602 322.4836 325.80116 330.78245 333.55204 338.8123 343.79359 351.26554 355.68894 360.67024 368.14219 373.12348 377.8557 385.0487">Scrollupanddown</tspan></text>
<path transform="matrix(.9411765,0,0,-.9411765,7.266693,85.08905)" stroke-width=".498" stroke-linecap="butt" stroke-miterlimit="10" stroke-linejoin="miter" fill="none" stroke="#000000" d="M0 0H178.998"/>
<text xml:space="preserve" transform="matrix(.9411765 0 -0 .9411765 -196.499 631.6848)" font-size="9.9626" font-family="SFTT1000"><tspan y="-569.958" x="216.501 221.73038 226.95975 232.18912 237.41849 242.64786 247.87723 253.1066 258.33598 263.56535 268.7947 274.02409 279.25346 284.48283 289.7122 294.94157">tab_focus(index)</tspan></text>
<path transform="matrix(.9411765,0,0,-.9411765,91.8248,98.33325)" stroke-width=".398" stroke-linecap="butt" stroke-miterlimit="10" stroke-linejoin="miter" fill="none" stroke="#000000" d="M0 0V10.909"/>
<text xml:space="preserve" transform="matrix(.9411765 0 -0 .9411765 -196.499 631.6848)" font-size="9.9626" font-family="NimbusRomNo9L"><tspan y="-569.958" x="312.521 315.83854 320.81983 325.24324 330.22453 336.59065 341.57194">focuson</tspan></text>
<text xml:space="preserve" transform="matrix(.9411765 0 -0 .9411765 -196.499 631.6848)" font-size="9.9626" font-family="CMMI10" font-style="italic"><tspan y="-569.958" x="349.043">i</tspan></text>
<text xml:space="preserve" transform="matrix(.9411765 0 -0 .9411765 -196.499 631.6848)" font-size="9.9626" font-family="NimbusRomNo9L"><tspan y="-569.958" x="352.476 355.79356 358.56315 366.0351 368.8047 373.2281">-thtab</tspan></text>
<text xml:space="preserve" transform="matrix(.9411765 0 -0 .9411765 -196.499 631.6848)" font-size="9.9626" font-family="SFTT1000"><tspan y="-559.049" x="216.501 221.73038 226.95975 232.18912 237.41849 242.64786 247.87723">new_tab</tspan></text>
<path transform="matrix(.9411765,0,0,-.9411765,91.8248,108.600528)" stroke-width=".398" stroke-linecap="butt" stroke-miterlimit="10" stroke-linejoin="miter" fill="none" stroke="#000000" d="M0 0V10.909"/>
<text xml:space="preserve" transform="matrix(.9411765 0 -0 .9411765 -196.499 631.6848)" font-size="9.9626" font-family="NimbusRomNo9L"><tspan y="-559.049" x="312.521 319.714 324.69529 329.11869 336.59065 343.5047 348.486 352.66035 362.344 365.1136 369.537">Openanewtab</tspan></text>
<text xml:space="preserve" transform="matrix(.9411765 0 -0 .9411765 -196.499 631.6848)" font-size="9.9626" font-family="SFTT1000"><tspan y="-548.14" x="216.501 221.73038 226.95975 232.18912 237.41849 242.64786 247.87723 253.1066 258.33598">tab_close</tspan></text>
<path transform="matrix(.9411765,0,0,-.9411765,91.8248,118.86786)" stroke-width=".398" stroke-linecap="butt" stroke-miterlimit="10" stroke-linejoin="miter" fill="none" stroke="#000000" d="M0 0V10.909"/>
<text xml:space="preserve" transform="matrix(.9411765 0 -0 .9411765 -196.499 631.6848)" font-size="9.9626" font-family="NimbusRomNo9L"><tspan y="-548.14" x="312.521 319.16606 321.93565 326.91694 330.7924 337.70646 342.12986 347.11116 350.42869 353.74623 358.16963 363.1509 368.41117 371.18077 375.60417">Closecurrenttab</tspan></text>
<path transform="matrix(.9411765,0,0,-.9411765,7.266693,120.79077)" stroke-width=".498" stroke-linecap="butt" stroke-miterlimit="10" stroke-linejoin="miter" fill="none" stroke="#000000" d="M0 0H178.998"/>
<text xml:space="preserve" transform="matrix(.9411765 0 -0 .9411765 -196.499 631.6848)" font-size="9.9626" font-family="SFTT1000"><tspan y="-532.026" x="216.501 221.73038 226.95975 232.18912 237.41849 242.64786 247.87723">go_back</tspan></text>
<path transform="matrix(.9411765,0,0,-.9411765,91.8248,134.03498)" stroke-width=".398" stroke-linecap="butt" stroke-miterlimit="10" stroke-linejoin="miter" fill="none" stroke="#000000" d="M0 0V10.909"/>
<text xml:space="preserve" transform="matrix(.9411765 0 -0 .9411765 -196.499 631.6848)" font-size="9.9626" font-family="NimbusRomNo9L"><tspan y="-532.026" x="312.521 319.11625 321.88584 325.7613 328.53089 333.79115 336.56074 341.54203 348.4561 351.22569 355.64909 359.52455 364.7848 371.97779 378.62284">VisitthelastURL</tspan></text>
<text xml:space="preserve" transform="matrix(.9411765 0 -0 .9411765 -196.499 631.6848)" font-size="9.9626" font-family="SFTT1000"><tspan y="-521.117" x="216.501 221.73038 226.95975 232.18912 237.41849 242.64786 247.87723 253.1066 258.33598 263.56535">go_forward</tspan></text>
<path transform="matrix(.9411765,0,0,-.9411765,91.8248,144.30225)" stroke-width=".398" stroke-linecap="butt" stroke-miterlimit="10" stroke-linejoin="miter" fill="none" stroke="#000000" d="M0 0V10.909"/>
<text xml:space="preserve" transform="matrix(.9411765 0 -0 .9411765 -196.499 631.6848)" font-size="9.9626" font-family="NimbusRomNo9L"><tspan y="-521.117" x="312.521 319.714 324.69529 329.67658">Undo</tspan></text>
<text xml:space="preserve" transform="matrix(.9411765 0 -0 .9411765 -196.499 631.6848)" font-size="9.9626" font-family="SFTT1000"><tspan y="-521.117" x="337.148 342.37739 347.60676 352.83613 358.0655 363.29487 368.52424">go_back</tspan></text>
<text xml:space="preserve" transform="matrix(.9411765 0 -0 .9411765 -196.499 631.6848)" font-size="9.9626" font-family="SFTT1000"><tspan y="-510.208" x="216.501 221.73038 226.95975 232.18912 237.41849 242.64786 247.87723 253.1066 258.33598">goto(URL)</tspan></text>
<path transform="matrix(.9411765,0,0,-.9411765,91.8248,154.56958)" stroke-width=".398" stroke-linecap="butt" stroke-miterlimit="10" stroke-linejoin="miter" fill="none" stroke="#000000" d="M0 0V10.909"/>
<text xml:space="preserve" transform="matrix(.9411765 0 -0 .9411765 -196.499 631.6848)" font-size="9.9626" font-family="NimbusRomNo9L"><tspan y="-510.208" x="312.521 319.714 327.18595 329.95555 337.4275 344.62049 351.26554">GotoURL</tspan></text>
<path transform="matrix(.9411765,0,0,-.9411765,7.266693,156.63257)" stroke-width=".797" stroke-linecap="butt" stroke-miterlimit="10" stroke-linejoin="miter" fill="none" stroke="#000000" d="M0 0H178.998"/>
<text xml:space="preserve" transform="matrix(.9411765 0 -0 .9411765 -196.499 631.6848)" font-size="11.9552" font-family="NimbusRomNo9L" font-weight="bold"><tspan y="-468.138" x="108 127.92932 135.01876 140.32686 146.30446 150.28554 155.59365 160.90175 164.88283 170.86043 176.16854 185.13494 193.76659 199.07469 205.72179 210.8147 216.1228 220.77338 226.08148 232.72858 236.70966 242.68726 246.66834 249.99188 255.96949">BTrajectoryRepresentation</tspan></text>
<path transform="matrix(1,0,0,-1,-206.139,679.92398)" d="M111.2871 299.8635V468.4646C111.2871 470.456 112.9013 472.0702 114.8927 472.0702H480.3921C482.3835 472.0702 483.9977 470.456 483.9977 468.4646V299.8635C483.9977 297.8722 482.3835 296.2579 480.3921 296.2579H114.8927C112.9013 296.2579 111.2871 297.8722 111.2871 299.8635Z" fill="#515151"/>
<path transform="matrix(1,0,0,-1,-206.139,679.92398)" d="M112.2247 299.8635V468.4646C112.2247 469.9381 113.4192 471.1326 114.8927 471.1326H480.3921C481.8656 471.1326 483.0601 469.9381 483.0601 468.4646V299.8635C483.0601 298.3901 481.8656 297.1956 480.3921 297.1956H114.8927C113.4192 297.1956 112.2247 298.3901 112.2247 299.8635Z" fill="#f5f5f5"/>
<text xml:space="preserve" transform="matrix(.9411765 0 -0 .9411765 -196.499 631.6848)" font-size="8.9664" font-family="SFTT0900"><tspan y="-438.863" x="113.978 118.68446 123.39093 128.0974 132.80387 137.51033 142.2168 151.63063 161.03549 165.74196 170.44843 175.15489 179.86136 184.56783 189.27429">website="&#x003c;url&#x003e;"</tspan></text>
<text xml:space="preserve" transform="matrix(.9411765 0 -0 .9411765 -196.499 631.6848)" font-size="8.9664" font-family="SFTT0900"><tspan y="-428.9" x="113.978 118.68446 123.39093 128.0974 132.80387 137.51033 142.2168 146.92327 151.62973 156.3362 161.04267 170.4565 179.86136 184.56783 189.27429 193.98076 198.68723 203.39369 208.10016 212.80663 222.22046 226.92693 236.34076 241.04723 245.7537 255.16753 259.874 264.58045 269.2869 273.98439 278.69084">observation="&#x003c;AXtreeofthepage&#x003e;"</tspan></text>
<text xml:space="preserve" transform="matrix(.9411765 0 -0 .9411765 -196.499 631.6848)" font-size="8.9664" font-family="SFTT0900"><tspan y="-418.937" x="113.978 118.68446 123.39093 128.0974 132.80387 137.51033 142.2168 146.92327 151.62973 161.04357 170.44843 175.15489 179.86136 184.56783 189.27429 198.68813 203.39459 208.10106 217.5149 222.22136 226.92783 231.6343 236.34076 241.04723 250.46106 255.16753 259.874 269.27885 273.9853 278.69175 283.3982 288.10466 292.8111 297.51756 302.224 306.93046 316.34428 321.05073 325.75718 330.46363 335.17008 344.5839 349.29035 358.70417 363.4106 368.1081 372.81455 382.22837 386.9348 391.64128 396.34773 401.05418 405.76063 410.46708 415.17353 424.58735 429.2938 438.7076 443.41407 448.1205 457.53434 462.24079 466.93827 471.6447 476.35118 481.05763 485.76408 490.47053 495.17698">objective="Findandreviewtheestimatedvalueofyourpropertyonthewebsite."</tspan></text>
<text xml:space="preserve" transform="matrix(.9411765 0 -0 .9411765 -196.499 631.6848)" font-size="8.9664" font-family="SFTT0900"><tspan y="-399.012" x="113.978 123.39182 128.09828 132.80474 137.51119 146.925 151.63146 156.32895 161.0354 165.74185 170.4483 175.15476">#pastactions</tspan></text>
<text xml:space="preserve" transform="matrix(.9411765 0 -0 .9411765 -196.499 631.6848)" font-size="8.9664" font-family="SFTT0900"><tspan y="-389.049" x="113.978 118.68446 123.39093 132.80477 137.51123 142.2177 146.92417 151.63063 156.3371 161.04357 165.75003">defsolve():</tspan></text>
<text xml:space="preserve" transform="matrix(.9411765 0 -0 .9411765 -196.499 631.6848)" font-size="8.9664" font-family="SFTT0900"><tspan y="-379.087" x="132.802 142.21582 146.92227 151.62873 156.33518 161.04163 165.74808 170.45453 175.16098 184.5748 189.2723 198.68611 203.39257 208.09902 212.80547 222.21929 226.92574 236.33956 241.046 245.75246 250.45891 259.87275 264.5792 269.28565 273.9921 278.69856 283.405 288.10249 292.80894 302.22276 306.9292 316.34303 321.04948 325.75593 330.46238 335.16883 339.87528">#sub-task1:LookupyourpropertyonZillow</tspan></text>
<text xml:space="preserve" transform="matrix(.9411765 0 -0 .9411765 -196.499 631.6848)" font-size="8.9664" font-family="SFTT0900"><tspan y="-369.124" x="132.802 142.21582 146.92227 151.62873 156.33518 165.749 170.45545 179.86029 184.56674 189.2732 193.97965 198.6861 203.39255 212.80637 217.51282 222.21927 231.63309 236.33954 241.04599 245.75244 255.16626 259.8727 264.57917 269.2856 273.99208 278.69853 283.40498 292.8098 297.51628 306.93009 311.63655 316.343 321.04945 325.7559 330.46235 335.1688 339.87525 349.28907 353.9955 358.70198 363.40843 368.11488 372.82133 377.52778 382.23423 391.63908 396.34553 401.05198 405.75843 410.46488 415.17134">#step1:SearchforyouraddressonZillow&#x2019;shomepagesearch</tspan></text>
<text xml:space="preserve" transform="matrix(.9411765 0 -0 .9411765 -196.499 631.6848)" font-size="8.9664" font-family="SFTT0900"><tspan y="-359.161" x="132.802 137.50847 142.21494 151.62877 156.33524 165.74907 170.45554 175.162 179.86847 189.27333 193.9798 198.68627 208.1001 212.80657 217.51303 222.2195 226.92597 231.63243 236.3389 241.04537 250.4592 255.16567 259.87214 264.57859 269.28504">bartoopenthepropertypage.</tspan></text>
<text xml:space="preserve" transform="matrix(.9411765 0 -0 .9411765 -196.499 631.6848)" font-size="8.9664" font-family="SFTT0900"><tspan y="-349.199" x="132.802 137.50847 142.21494 146.9214 151.62787 156.33434 161.0408 165.74727 170.45374 175.1602 179.86667 184.57314 189.2796 193.98607 198.69254 203.399 208.10547 212.81194 217.5184 222.2159 226.92237 231.62883 236.3353 245.74913 250.4556 255.16207 259.86854 264.57499 269.28144 273.98789 278.69435 283.4008 288.10725 292.8137 297.52015 306.93397 311.6404 316.34687 321.0533">type(element_id="6135",string="MainSt")</tspan></text>
<text xml:space="preserve" transform="matrix(.9411765 0 -0 .9411765 -196.499 631.6848)" font-size="8.9664" font-family="SFTT0900"><tspan y="-339.236" x="132.802 142.21582 146.92227 151.62873 156.33518 165.749 170.45545 179.86029 184.56674 189.2732 193.97965 203.39347 208.09992 212.80637 222.22019 226.92664 231.63309 236.33954 241.04599 245.75244 250.4589 255.16535 264.57917 269.2856 273.99208 278.69853 283.40498 288.10246 292.8089 302.22273 306.92918 311.63563 316.34208 321.04853 330.46235 335.1688 339.87525 344.5817 349.28816 353.9946 358.70106 363.4075 372.82133 377.52778 386.93263 391.63908 396.34553 405.75935 410.4658 415.17225 419.8787 424.58515 429.2916 433.99806 438.7045 443.41096 448.1174 452.82386 462.23768 466.94413 471.65058 476.35704 481.06349 485.76994 490.47639 495.18284">#step2:Fromthepropertydetailspage,navigatetothe"Zestimate"section.</tspan></text>
<text xml:space="preserve" transform="matrix(.9411765 0 -0 .9411765 -196.499 631.6848)" font-size="8.9664" font-family="SFTT0900"><tspan y="-329.273" x="132.802 137.50847 142.21494 146.9214 151.62787 156.33434 161.0408 165.74727 170.45374 175.1602 179.86667 184.57314">scroll(down)</tspan></text>
<text xml:space="preserve" transform="matrix(.9411765 0 -0 .9411765 -196.499 631.6848)" font-size="8.9664" font-family="SFTT0900"><tspan y="-309.348" x="132.802 142.21582 146.92227 151.62873 156.33518 161.04163 165.74808 170.45453 175.16098 184.5748 189.2723 198.68611 203.39257 208.09902 212.80547 217.51192 226.92574 231.63219 236.33864 241.04509 245.75154 250.458 255.16446 259.8709 264.57737 273.99119 278.69764 283.40409 292.80894 297.51539 302.22184 306.92829 311.63475 316.3412 321.04765 325.7541 330.46055 339.87437 344.5808 349.28727 353.9937 358.70018">#sub-task2:Beginadjustingtheestimatedvalue</tspan></text>
<text xml:space="preserve" transform="matrix(.9411765 0 -0 .9411765 -196.499 631.6848)" font-size="8.9664" font-family="SFTT0900"><tspan y="-299.386" x="132.802 142.21582 146.92227 151.62873 156.33518 165.749 170.45545 179.86029 184.56674 189.2732 193.97965 198.6861 208.09992 212.80637">#step3:Clickon</tspan></text>
<text xml:space="preserve" transform="matrix(.9411765 0 -0 .9411765 -196.499 631.6848)" font-size="8.9664" font-family="SFTT0900"><tspan y="-299.386" x="222.22">'</tspan></text>
<text xml:space="preserve" transform="matrix(.9411765 0 -0 .9411765 -196.499 631.6848)" font-size="8.9664" font-family="SFTT0900"><tspan y="-299.386" x="226.926 231.63246 236.33893 241.0454 250.45923 255.1657 259.87217 264.5786 273.99244 278.69889 283.39637 288.1028 292.80928">Edithomefacts</tspan></text>
<text xml:space="preserve" transform="matrix(.9411765 0 -0 .9411765 -196.499 631.6848)" font-size="8.9664" font-family="SFTT0900"><tspan y="-299.386" x="297.519">'</tspan></text>
<text xml:space="preserve" transform="matrix(.9411765 0 -0 .9411765 -196.499 631.6848)" font-size="8.9664" font-family="SFTT0900"><tspan y="-299.386" x="306.932 311.63847 321.05229 325.75874 330.46519 335.17164 339.87809 344.58454 353.98939 358.69584 363.40229 368.10874 372.8152 377.52165 382.2281 391.6419 396.34837 401.0548 405.76127">toadjustdetailsthat</tspan></text>
<text xml:space="preserve" transform="matrix(.9411765 0 -0 .9411765 -196.499 631.6848)" font-size="8.9664" font-family="SFTT0900"><tspan y="-289.423" x="132.802 137.50847 142.21494 146.9214 151.62787 161.0417 165.74817 170.45464 175.1611 179.86757 184.57404 193.9789 198.68537 203.39183 212.80567 217.51213 222.2186 226.92507">mightaffectthehome</tspan></text>
<text xml:space="preserve" transform="matrix(.9411765 0 -0 .9411765 -196.499 631.6848)" font-size="8.9664" font-family="SFTT0900"><tspan y="-289.423" x="231.633">'</tspan></text>
<text xml:space="preserve" transform="matrix(.9411765 0 -0 .9411765 -196.499 631.6848)" font-size="8.9664" font-family="SFTT0900"><tspan y="-289.423" x="236.339 245.75283 250.45928 255.16574 259.8722 264.57865 269.2851 273.99156 278.698 283.40446 292.8093 297.51576 302.2222 306.92866 311.6351 316.34156">sestimatedvalue.</tspan></text>
<text xml:space="preserve" transform="matrix(.9411765 0 -0 .9411765 -196.499 631.6848)" font-size="8.9664" font-family="SFTT0900"><tspan y="-279.46" x="132.802 137.50847 142.21494 146.9214 151.62787 156.33434 161.0408 165.74727 170.45374 175.1602 179.86667 184.57314 189.2796 193.98607 198.69254 203.399 208.10547 212.81194 217.5184 222.2159 226.92237 231.62883 236.3353 241.04177">click(element_id="9945")</tspan></text>
<text xml:space="preserve" transform="matrix(.9411765 0 -0 .9411765 -196.499 631.6848)" font-size="11.9552" font-family="NimbusRomNo9L" font-weight="bold"><tspan y="-236.406" x="108 128.58686 135.89148 140.98439 146.96199 156.92067 163.56777 170.53765 174.51873 183.48513 190.78975 194.1133 197.43685 201.41793 206.72603 215.02294 223.65459 226.97814 233.62523 236.94878 246.24993 252.10797 263.72843 272.36009 277.66819 281.64927 284.9728 290.2809 293.60447 298.91258">CPrompttoFilterwikiHowArticles</tspan></text>
<path transform="matrix(1,0,0,-1,-206.139,679.92398)" d="M111.2871 116.0038V251.3019C111.2871 253.2932 112.9013 254.9075 114.8927 254.9075H480.3921C482.3835 254.9075 483.9977 253.2932 483.9977 251.3019V116.0038Z" fill="#515151"/>
<path transform="matrix(1,0,0,-1,-206.139,679.92398)" d="M112.2247 116.0038H483.06V235.2681H112.2247Z" fill="#f5f5f5"/>
<path transform="matrix(1,0,0,-1,-206.139,679.92398)" d="M112.2247 236.2058V251.3019C112.2247 252.7753 113.4192 253.9698 114.8927 253.9698H480.3921C481.8656 253.9698 483.0601 252.7753 483.0601 251.3019V236.2058Z" fill="#797979"/>
<text fill="#ffffff" xml:space="preserve" transform="matrix(.9411765 0 -0 .9411765 -196.499 631.6848)" font-size="9.9626" font-family="NimbusRomNo9L"><tspan y="-206.851" x="113.978 119.517208 122.83475 127.81605 135.56696 140.54825 145.8085 148.57811 156.05005 161.58925 164.35886 167.12847 171.55187 177.36006 184.55306 187.32266 192.30396 195.07357 202.26656 206.99878 216.68242 221.10582 224.42337 227.19298 229.96259 234.38599 237.1556 241.579">Promptto&#xfb01;lterwikiHowarticles</tspan></text>
<text xml:space="preserve" transform="matrix(.93171718 0 -0 .95073178 -196.499 631.6848)" font-size="8.876284" font-family="NimbusRomNo9L"><tspan y="-185.76999" x="115.13517 121.543849 123.78068 128.08568 132.02675 138.6751 141.14272 145.58086 151.72325 154.19086 156.65848 159.12609 161.59369 167.74497 172.1831 177.34912 181.29019 187.92966 191.87073 194.82654 197.29415 199.76177 203.70282 206.17044 210.11151 214.54964 218.98778 222.92885 225.39646 229.33753 232.29334 239.1991 241.6667 246.10485 252.25612 254.72373 259.88087 262.34849 267.02629 269.4939 275.1481 279.08918 283.5273 287.96543 292.40357 297.0814 301.5195 305.46058 308.41639 311.37217 315.8103 318.76609 325.6718 328.13945 332.57759 339.2259 345.3683 347.8359 351.77699 355.22987 361.8782 365.3311 369.7692 372.23683 376.1779 378.6455 385.28495 391.69364 394.16127 396.62886 403.2772 407.21827 411.65638 418.56214 423.00025 427.4384 429.906 433.84706 439.01307 443.45118 448.6083 455.51405 459.95219 464.3903 466.8579 469.32554 475.4768 479.91493 484.35307 488.7912 493.2293 497.17039 499.62913">Giventhetitleofanarticle,determineifitisaboutperformingatasksolelywithcomputerormobilephone&#x2019;s</tspan></text>
<text xml:space="preserve" transform="matrix(.9411765 0 -0 .9411765 -196.499 631.6848)" font-size="8.9664" font-family="NimbusRomNo9L"><tspan y="-177.694" x="113.978 118.4612 121.44701 125.428089 129.91129 134.39449 136.88715 140.86823 144.8493 149.58356 154.06676 157.55469 161.53577 166.76319 169.25585 173.73905 176.2317 180.21279 183.1986 186.09474 190.07582 194.0569 198.03798 202.52118 206.50226 210.98546 217.71027 224.184 226.67667 229.16933 233.65253 238.13573 242.61893 247.35318 251.33426 255.68297 262.40779 266.891 271.32939 275.81257 279.30049 281.79313 285.7742 289.75529 294.48954 300.87364 305.3568 308.34263 310.83528 317.5601 321.54118 326.02436 330.50758 335.4929 339.97608 344.4593 347.4451 351.42619 353.91883 356.41148 360.89466 365.37788 368.86579">graphicaluserinterface,andwithoutanyphysicalworldcon&#xfb01;gurations.</tspan></text>
<text xml:space="preserve" transform="matrix(.9411765 0 -0 .9411765 -196.499 631.6848)" font-size="8.9664" font-family="NimbusRomNo9L"><tspan y="-147.806" x="113.978 116.47066 120.95386 125.43706 129.92026 132.41292 137.68517 144.1589 148.41794 157.13327 159.62593 166.35074 171.33606 175.31714 180.05139 186.52513 193.24994 199.23053 203.71373 206.69954 211.18274 218.1586 222.13968 226.12076 230.10184 233.58977 238.32404 246.42966 248.92232 253.90764 258.6419 261.62773 268.10148 271.5894 274.08204 278.56526 285.29008 289.27116 295.99595 302.4697 306.95289 311.4361 314.4219 318.9051 321.39775 328.12254 333.10786 337.59107 342.07429 346.5575 352.78019 357.26338 362.49079 367.25196 371.23304 375.71626 378.2089 382.18998 384.68263">input:HowtoSetUpChromecastWiFi(UsinganAndroidPhoneorTablet)</tspan></text>
<text xml:space="preserve" transform="matrix(.9505417 0 -0 .93190357 -196.499 631.6848)" font-size="9.05562" font-family="NimbusRomNo9L"><tspan y="-139.21462" x="112.855037 117.382839 121.910648 124.42811 128.95592 133.48372 136.00118 142.69329 147.72821 151.7489 157.19133 163.72948 171.1913 177.2314 181.75922 184.77474 189.30255 196.34781 200.3685 204.38919 208.4099 211.93253 217.37496 225.57028 228.08774 233.12267 238.57415 241.0916 245.25719 249.61293 254.14076 256.6582 261.0502 265.0709 271.52757 276.0554 280.58323 283.10069 290.55348 297.50819 304.55348 309.0813 313.6091 316.12657 318.64405 325.5897 329.61039 334.1382 338.66603 341.18348 343.70094 347.72166 351.74235 354.2598 356.77726 361.30509 368.76695 372.78764 377.31544 384.76823 389.29606 393.7786 398.30644 401.82905 404.34654 408.36723 412.3879 417.8394 420.35685 424.88468 427.40214 431.42283 434.43836 438.45906 442.47975 444.9972 447.51466 452.04249 456.5703 463.01789 469.55604 472.07353 474.59098 482.05284 484.57029 489.0981">output:SetUpChromecastWiFiinvolvesbothamobileapplicationandphysicalinteractionswiththe</tspan></text>
<text xml:space="preserve" transform="matrix(.9411765 0 -0 .9411765 -196.499 631.6848)" font-size="8.9664" font-family="NimbusRomNo9L"><tspan y="-127.88" x="113.978 119.95859 124.44179 127.4276 131.9108 138.88666 142.86774 146.84882 150.8299 154.31783 159.0521 163.5353 167.2922 171.7754 174.26807 178.24915 184.47183 187.95977 192.44297 196.42404 203.14884 207.12992 212.85944 217.34264 219.8353 224.3185 231.0433 233.53597 240.26078 242.75344 247.23664 253.45932 257.9425 261.69944 266.18263 268.67527 272.65635 276.63743 281.12065 284.60856 291.33335 293.826 298.3092 304.5319 308.51298 312.99617 316.48408 322.95783 326.9389 332.16633 334.65898 340.3885 344.04679 350.52055 355.00373">Chromecastdevicesuchaspluginthedevice,sotheansweris"No"</tspan></text>
<text xml:space="preserve" transform="matrix(.9411765 0 -0 .9411765 -196.499 631.6848)" font-size="8.9664" font-family="NimbusRomNo9L"><tspan y="-107.955" x="113.978 116.47066 120.95386 125.43706 129.92026 132.41292 137.68517 144.1589 148.41794 157.13327 159.62593 166.35074 172.33133 176.81453 180.79561 185.27881 189.76201 195.98468 201.47212 205.95532 210.43852 215.66593 222.13967 226.12075 229.60868 234.09188 236.58454 241.06774 247.79254 255.53952 259.5206 262.01325 264.5059 268.98908 272.97016 277.45338 281.43446 286.66188 291.14509 297.8699 303.3484 305.84104 310.32423 314.80744 321.53227 329.5034 331.99604 336.47926 341.2135 344.1993 350.67308 354.16099 356.65364 361.13685 367.86167 370.3543 374.83753 381.0602 386.5387 389.03135 393.51454 397.99775 404.72257 412.6937 415.18635 419.66957 424.4038 432.1508 436.13188 438.6245 441.11717 445.60035 449.58143 454.06465 458.04573 461.03153 464.51945">input:HowtoChangeYourDesktopWallpaperonLinuxMint(UsingtheLinuxMintWallpapers)</tspan></text>
<text xml:space="preserve" transform="matrix(.9505417 0 -0 .93190357 -196.499 631.6848)" font-size="9.05562" font-family="NimbusRomNo9L"><tspan y="-98.96707" x="112.855037 117.382839 121.910648 124.42811 128.95592 133.48372 136.00118 141.91449 147.44748 149.96494 154.49275 159.02056 166.08394 174.13439 176.65184 181.17966 186.2327 188.75016 194.81742 201.37369 205.90149 209.92218 213.44483 217.97263 220.4901 225.0179 232.09033 236.61814 241.14595 245.16664 248.18216 252.20285 254.72032 257.2378 261.7656 268.82899 272.35163 276.87944 280.40208 282.91954 286.94023 293.9855 298.8665 302.88719 307.415 314.48747 318.50816 323.03596 327.05668 331.58448 336.1123 338.62977 343.1576 350.22099 352.73844 357.26625 363.83158 368.35939 372.38008 375.9027 380.43055 382.948 387.4758 394.53919 400.9868 405.00749 407.52494 410.0424 414.57023 418.5909 423.11875 427.13945 432.6996 435.21705 441.27525 443.7927 448.3205 452.84834 455.36579 459.38648 463.40718 465.92463 468.4421 475.51457 480.04237 484.5702 489.09803">output:LinuxMintisadesktopoperatingsystem,andchangingthedesktopwallpaperistypicallydone</tspan></text>
<text xml:space="preserve" transform="matrix(.9355123 0 -0 .94687488 -196.499 631.6848)" font-size="8.912439" font-family="NimbusRomNo9L"><tspan y="-87.50023" x="114.66809 117.14575 121.601978 124.56982 129.02603 133.48226 137.93846 144.64952 147.12718 151.5834 157.78646 161.2534 165.70961 169.17656 171.65422 175.61135 184.80007 188.267 192.22412 194.70178 197.17945 199.65712 204.11333 208.56955 214.28243 218.73863 223.96132 228.41754 232.37467 235.8416 240.29782 242.77548 247.23169 253.94275 257.89988 261.9907 266.44694 268.92457 271.8924 276.34864 280.80488 287.73875 291.6959 296.15214 298.62977 301.0985 306.82029 310.77745 315.23365 319.68989 324.6452 329.10145 333.55769 336.5255 340.48268 342.9603 345.43797 349.8942 356.60527 359.08293 363.53916 367.99537 370.47303 373.93998 378.414 384.8488 389.30503 391.78266 395.7398 402.45088 406.408 409.37586 415.58784 420.04408 424.0012 427.46815 431.92436 434.402 438.85826 445.5604 449.51756 453.9738 458.43 460.90766 463.3853 467.34245 471.29957 473.77723 476.25489 480.7111 485.16734 488.63429 493.11723 496.58418">throughthesystemsettingsordesktopenvironment&#x2019;scon&#xfb01;gurationtools,whicharedesktopapplications,so</tspan></text>
<text xml:space="preserve" transform="matrix(.9411765 0 -0 .9411765 -196.499 631.6848)" font-size="8.9664" font-family="NimbusRomNo9L"><tspan y="-78.067" x="113.978 116.47066 120.95386 127.17654 131.15763 135.64083 139.12876 145.6025 149.58358 154.81098 157.30364 163.03318 166.69147 172.26857 176.24965 179.73758">theansweris"Yes"</tspan></text>
<text xml:space="preserve" transform="matrix(.9411765 0 -0 .9411765 -196.499 631.6848)" font-size="9.9626" font-family="NimbusRomNo9L"><tspan y="-42.112" x="301.019 306.0003">16</tspan></text>
</g>
</g>
</svg>
