<svg xmlns="http://www.w3.org/2000/svg" xmlns:xlink="http://www.w3.org/1999/xlink" version="1.1" width="323.933" height="229.277" viewBox="0 0 323.933 229.277">
<defs>
<clipPath id="clip_0">
<path transform="matrix(1,0,0,-1,-136.725,679.923)" d="M0 0H595.28V841.89H0Z"/>
</clipPath>
<clipPath id="clip_1">
<path transform="matrix(1,0,0,-1,-136.725,679.923)" d="M9.640015 48.23912H585.64V793.65097H9.640015Z"/>
</clipPath>
</defs>
<g clip-path="url(#clip_0)">
<g clip-path="url(#clip_1)">
<text xml:space="preserve" transform="matrix(.95054158 0 -0 .93190369 -127.08499 631.68386)" font-size="10.061731" font-family="NimbusRomNo9L"><tspan y="-712.40896" x="106.62999 111.9929 116.46031 121.49117 124.28834 131.82457 136.85543 143.93889 149.53322 154.00063 157.34113 160.69168 165.72255 169.0731 176.90113 181.36853 186.3994 190.8668 198.4131 203.44397 209.87343 214.65274 219.12015 222.4707 225.26787 230.29874 235.32962 242.32251 250.15055 255.1814 260.21229 264.6797 267.47685 274.46977 277.2669 285.37669 288.17384 293.20469 296.55528 301.02268 308.55894 315.8235 320.29093 325.32179 328.67237 333.70326 338.17066 342.0847 346.5521 354.66188 357.459 361.92643 365.84046 373.95024 378.9811 383.44853 388.4794 392.9468 397.9777 405.8057 410.27314 413.6237 418.65458 422.5686 429.97404 438.6774 446.22373 454.05177 458.51918 462.98658 466.9006 471.9315 475.28205 482.82838 486.7424 489.53956 494.00697">Table1:Performanceofvariousmodelsinthreeweb-basedtaskbenchmarks.Wemeasurestep</tspan></text>
<text xml:space="preserve" transform="matrix(.93171718 0 -0 .9507318 -127.08499 631.68386)" font-size="9.862471" font-family="NimbusRomNo9L"><tspan y="-687.5011" x="109.09648 113.47542 117.85436 122.2333 127.164539 130.44875 134.82769 139.05869 146.3076 149.5918 157.80724 163.40912 166.69332 171.62454 177.22643 185.99416 188.73593 193.66716 198.59839 203.52962 212.04093 216.41988 221.3511 226.17385 230.5528 235.48403 242.73293 245.4747 249.85366 253.69016 260.93907 264.77555 269.7068 274.08573 278.46467 282.84364 286.6801 292.8343 296.1185 300.49745 303.2392 309.94566 313.22987 321.4453 327.04716 330.33137 335.2626 340.86448 349.63224 352.37397 357.30525 360.04698 368.54844 373.47969 380.05796 385.6204 393.5005 397.87944 402.81068 410.06947 418.57093 422.94987 427.8811 435.0018 438.28599 442.66496 447.5962 451.97514 457.4981 463.52406 468.4553 475.15193 480.08317 485.0144 492.6874 497.61866 501.9976 505.2818">accuracy(%)forMind2Web,andtasksuccessrate(%)forMiniWoB++andWebArena.Thenumbers</tspan></text>
<text xml:space="preserve" transform="matrix(.95054158 0 -0 .93190369 -127.08499 631.68386)" font-size="10.061731" font-family="NimbusRomNo9L"><tspan y="-690.37387" x="106.93594 111.96681">of</tspan></text>
<text xml:space="preserve" transform="matrix(.9411765 0 -0 .9411765 -127.08499 631.68386)" font-size="9.9626" font-family="SFTT1000"><tspan y="-683.572" x="119.789 125.01837 130.24774 135.47711 140.70648 145.93585 151.16522 156.39459 161.62397 166.85334">FireAct-7b</tspan></text>
<text xml:space="preserve" transform="matrix(.95054158 0 -0 .93190369 -127.08499 631.68386)" font-size="10.061731" font-family="NimbusRomNo9L"><tspan y="-690.37387" x="173.67588 176.47303 183.67723 186.47438 190.94179 195.87204 200.33945 208.66049 212.01105 215.3616 220.39246 231.52072">istakenfrom[</tspan></text>
<text fill="#00007f" xml:space="preserve" transform="matrix(.9411765 0 -0 .9411765 -127.08499 631.68386)" font-size="9.9626" font-family="NimbusRomNo9L"><tspan y="-683.572" x="237.204">5</tspan></text>
<text xml:space="preserve" transform="matrix(.95054158 0 -0 .93190369 -127.08499 631.68386)" font-size="10.061731" font-family="NimbusRomNo9L"><tspan y="-690.37387" x="239.7999 243.15047">];</tspan></text>
<text xml:space="preserve" transform="matrix(.9411765 0 -0 .9411765 -127.08499 631.68386)" font-size="9.9626" font-family="SFTT1000"><tspan y="-683.572" x="252.136 257.36537 262.59474 267.8241 273.05348 278.28285 283.5122 288.74159 293.97096 299.20033 304.4297 309.65907 314.88844 320.1178 325.34718 330.57655 335.8059">AutoWebGLM-7b(S1)</tspan></text>
<text xml:space="preserve" transform="matrix(.95054158 0 -0 .93190369 -127.08499 631.68386)" font-size="10.061731" font-family="NimbusRomNo9L"><tspan y="-690.37387" x="340.9623 344.31288 348.7803 353.81117 357.16175 361.62916 365.54319 370.0106 375.04148 377.83863 385.04286 387.84 392.87089 400.62849 408.4565 413.4874 418.51826 422.9857 429.07304 431.87019 435.22074 439.68818 442.48533 447.51618 451.9836 460.3047 467.56925 470.3664 473.16355 481.4947 486.52555 491.55644 494.35359">representsthemodeltrainedwithonly</tspan></text>
<text xml:space="preserve" transform="matrix(.9411765 0 -0 .9411765 -127.08499 631.68386)" font-size="9.9626" font-family="NimbusRomNo9L"><tspan y="-672.663" x="108 111.87545 116.85675 121.83805 124.60765 129.58895 134.01235 136.78195 139.55156 146.4656 151.4469 155.8703 158.63991 165.55396 168.32357 175.7955">syntheticdatain[</tspan></text>
<text fill="#00007f" xml:space="preserve" transform="matrix(.9411765 0 -0 .9411765 -127.08499 631.68386)" font-size="9.9626" font-family="NimbusRomNo9L"><tspan y="-672.663" x="179.113 184.0943">19</tspan></text>
<text xml:space="preserve" transform="matrix(.9411765 0 -0 .9411765 -127.08499 631.68386)" font-size="9.9626" font-family="NimbusRomNo9L"><tspan y="-672.663" x="189.0756 192.39316 197.97222 205.1652 207.93482 213.19507 218.17636 220.94597 225.92726 230.35066 236.15886 241.14015 246.12145 253.87235 258.85365 263.27705 266.59458 272.9607 277.3841 280.70164 287.6157 292.597 295.91453 300.8958 305.8771 310.8584 315.2818 319.7052 327.17716 332.15846 339.6304 344.6117 349.593 355.40119 362.49455 367.47584 370.79338 375.77467">].Allothernumbersareproducedbyourwork.</tspan></text>
<path transform="matrix(.9411765,0,0,-.9411765,7.6707918,2.045288)" stroke-width=".797" stroke-linecap="butt" stroke-miterlimit="10" stroke-linejoin="miter" fill="none" stroke="#000000" d="M0 0H325.645"/>
<text xml:space="preserve" transform="matrix(.9411765 0 -0 .9411765 -127.08499 631.68386)" font-size="8.9664" font-family="NimbusRomNo9L" font-weight="bold"><tspan y="-658.705" x="149.155 157.61928 162.10248 167.0878 171.06888 268.43504 276.89933 279.39198 284.3773 289.3626 293.84584 302.2294 306.21049 337.7453 346.2096 348.70225 353.68757 356.1802 364.47413 368.95735 374.93794 380.04878 412.4892 420.87278 424.85386 429.83918 436.31294 440.1326 444.11369 449.099">ModelMind2WebMiniWoB++WebArena</tspan></text>
<path transform="matrix(.9411765,0,0,-.9411765,7.6707918,16.461304)" stroke-width=".498" stroke-linecap="butt" stroke-miterlimit="10" stroke-linejoin="miter" fill="none" stroke="#000000" d="M0 0H325.645"/>
<text xml:space="preserve" transform="matrix(.9411765 0 -0 .9411765 -127.08499 631.68386)" font-size="8.9664" font-family="NimbusRomNo9L"><tspan y="-643.537" x="270.01 274.99534 277.48799 281.9712 286.4544 288.94706 295.16975 298.65766 301.1503 305.13139 351.7387 356.72404 361.2072 365.69044 368.67625 423.56855 429.04704 433.5302 438.01344">SinglestepShortLong</tspan></text>
<text xml:space="preserve" transform="matrix(.9411765 0 -0 .9411765 -127.08499 631.68386)" font-size="8.9664" font-family="NimbusRomNo9L"><tspan y="-633.574" x="259.94 265.9206 269.90168 272.88749 276.86857 279.85438 283.83546 288.31867 292.29975 296.28083 299.26664 303.74983 307.7309 311.2188 315.1999 331.6353 337.1138 341.4625 345.44358 349.42466 353.90785 356.40049 358.89314 363.37635 367.85957 370.84538 375.32856 379.30964 382.79756 386.77864 403.22303 408.7015 413.0502 417.03129 421.01237 425.49555 427.9882 430.48085 434.96406 439.44728 442.43309 446.91627 450.89735 454.38526 458.36634">Reference-basedExecution-basedExecution-based</tspan></text>
<path transform="matrix(.9411765,0,0,-.9411765,7.6707918,40.113954)" stroke-width=".498" stroke-linecap="butt" stroke-miterlimit="10" stroke-linejoin="miter" fill="none" stroke="#000000" d="M0 0H325.645"/>
<text xml:space="preserve" transform="matrix(.9411765 0 -0 .9411765 -127.08499 631.68386)" font-size="8.9664" font-family="NimbusRomNo9L" font-style="italic"><tspan y="-618.406" x="272.757 278.23548 283.71397 286.69978 289.68559 294.16877 298.65199 302.1399 306.12098 312.8458 320.31483 324.79804 329.28126 333.26234 335.75498">API-basedModels</tspan></text>
<path transform="matrix(.9411765,0,0,-.9411765,7.6707918,54.38977)" stroke-width=".498" stroke-linecap="butt" stroke-miterlimit="10" stroke-linejoin="miter" fill="none" stroke="#000000" d="M0 0H325.645"/>
<text xml:space="preserve" transform="matrix(.9411765 0 -0 .9411765 -127.08499 631.68386)" font-size="8.9664" font-family="SFTT0900"><tspan y="-603.238" x="149.155 153.86147 158.56793 163.2744 167.98087 172.68733 177.3938">GPT-3.5</tspan></text>
<text xml:space="preserve" transform="matrix(.9411765 0 -0 .9411765 -127.08499 631.68386)" font-size="8.9664" font-family="NimbusRomNo9L"><tspan y="-603.238" x="279.724 284.2072 288.69044 290.93205 295.41523 351.36558 355.84877 360.33198 362.57359 367.05677 425.18595 429.66914 431.91075 436.39393">12.7939.576.16</tspan></text>
<text xml:space="preserve" transform="matrix(.9411765 0 -0 .9411765 -127.08499 631.68386)" font-size="8.9664" font-family="SFTT0900"><tspan y="-593.275" x="149.155 153.86147 158.56793 163.2744 167.98087">GPT-4</tspan></text>
<text xml:space="preserve" transform="matrix(.9411765 0 -0 .9411765 -127.08499 631.68386)" font-size="8.9664" font-family="NimbusRomNo9L"><tspan y="-593.275" x="279.724 284.2072 288.69044 290.93205 295.41523 351.36558 355.84877 360.33198 362.57359 367.05677 422.94435 427.42756 431.91078 434.15238 438.63557">29.0953.0414.41</tspan></text>
<path transform="matrix(.9411765,0,0,-.9411765,7.6707918,78.04248)" stroke-width=".498" stroke-linecap="butt" stroke-miterlimit="10" stroke-linejoin="miter" fill="none" stroke="#000000" d="M0 0H325.645"/>
<text xml:space="preserve" transform="matrix(.9411765 0 -0 .9411765 -127.08499 631.68386)" font-size="8.9664" font-family="NimbusRomNo9L" font-style="italic"><tspan y="-578.107" x="249.391 255.86475 260.34797 264.32905 268.81227 271.79808 275.28599 279.76918 284.25239 287.40855 291.38963 297.6123 300.5981 305.0813 308.5692 311.06187 314.54978 319.03297 323.01405 325.50669 329.48777 336.21257 343.68159 348.1648 352.648 356.6291 359.12174">Open-sourceInstructedModels</tspan></text>
<path transform="matrix(.9411765,0,0,-.9411765,7.6707918,92.31818)" stroke-width=".498" stroke-linecap="butt" stroke-miterlimit="10" stroke-linejoin="miter" fill="none" stroke="#000000" d="M0 0H325.645"/>
<text xml:space="preserve" transform="matrix(.9411765 0 -0 .9411765 -127.08499 631.68386)" font-size="8.9664" font-family="SFTT0900"><tspan y="-562.939" x="149.155 153.86147 158.56793 163.2744 167.98087 172.68733 177.3938 182.10027 186.80673 191.5132 196.21967 200.92613 205.6326 210.33907 215.04553 219.752 224.45847 229.16493 233.86243 238.5689 243.27536">CodeLlama-instruct-7b</tspan></text>
<text xml:space="preserve" transform="matrix(.9411765 0 -0 .9411765 -127.08499 631.68386)" font-size="8.9664" font-family="NimbusRomNo9L"><tspan y="-562.939" x="281.966 286.44923 288.69084 293.174 351.36598 355.84919 360.3324 362.574 367.0572 425.18638 429.66957 431.91117 436.39436">6.6223.040.00</tspan></text>
<text xml:space="preserve" transform="matrix(.9411765 0 -0 .9411765 -127.08499 631.68386)" font-size="8.9664" font-family="SFTT0900"><tspan y="-552.977" x="149.155 153.86147 158.56793 163.2744 167.98087 172.68733 177.3938 182.10027 186.80673 191.5132 196.21967 200.92613 205.6326 210.33907">Llama3-chat-8b</tspan></text>
<text xml:space="preserve" transform="matrix(.9411765 0 -0 .9411765 -127.08499 631.68386)" font-size="8.9664" font-family="NimbusRomNo9L"><tspan y="-552.977" x="279.724 284.2072 288.69044 290.93205 295.41523 351.36558 355.84877 360.33198 362.57359 367.05677 425.18595 429.66914 431.91075 436.39393">11.5031.743.32</tspan></text>
<text xml:space="preserve" transform="matrix(.9411765 0 -0 .9411765 -127.08499 631.68386)" font-size="8.9664" font-family="SFTT0900"><tspan y="-543.014" x="149.155 153.86147 158.56793 163.2744 167.98087 172.68733 177.3938 182.10027 186.80673 191.5132 196.21967 200.92613 205.6326 210.33907 215.04553">Llama3-chat-70b</tspan></text>
<text xml:space="preserve" transform="matrix(.9411765 0 -0 .9411765 -127.08499 631.68386)" font-size="8.9664" font-family="NimbusRomNo9L"><tspan y="-543.014" x="279.724 284.2072 288.69044 290.93205 295.41523 351.36558 355.84877 360.33198 362.57359 367.05677 425.18595 429.66914 431.91075 436.39393">22.2748.707.02</tspan></text>
<path transform="matrix(.9411765,0,0,-.9411765,7.6707918,125.34686)" stroke-width=".498" stroke-linecap="butt" stroke-miterlimit="10" stroke-linejoin="miter" fill="none" stroke="#000000" d="M0 0H325.645"/>
<text xml:space="preserve" transform="matrix(.9411765 0 -0 .9411765 -127.08499 631.68386)" font-size="8.9664" font-family="NimbusRomNo9L" font-style="italic"><tspan y="-527.846" x="219.031 225.50475 229.98795 233.96903 238.45223 241.43804 244.92597 249.40917 253.89237 257.04853 261.0296 267.2523 270.2381 274.7213 277.21397 281.19505 284.54847 289.03169 293.01277 295.5054 297.99806 301.97914 308.2018 314.67558 319.15876 321.6514 328.3762 333.4512 335.94386 340.42707 344.40815 346.9008 351.38398 355.8672 359.84828 366.5731 374.0421 378.52534 383.00856 386.98963 389.48228">Open-sourceInteractiveDataFinetunedModels</tspan></text>
<path transform="matrix(.9411765,0,0,-.9411765,7.6707918,139.62268)" stroke-width=".498" stroke-linecap="butt" stroke-miterlimit="10" stroke-linejoin="miter" fill="none" stroke="#000000" d="M0 0H325.645"/>
<text xml:space="preserve" transform="matrix(.9411765 0 -0 .9411765 -127.08499 631.68386)" font-size="8.9664" font-family="SFTT0900"><tspan y="-512.678" x="149.155 153.86147 158.56793 163.2744 167.98087 172.68733 177.3938 182.10027 186.80673 191.5132">FireAct-7b</tspan></text>
<text xml:space="preserve" transform="matrix(.9411765 0 -0 .9411765 -127.08499 631.68386)" font-size="8.9664" font-family="NimbusRomNo9L"><tspan y="-512.678" x="198.459">[</tspan></text>
<text fill="#00007f" xml:space="preserve" transform="matrix(.9411765 0 -0 .9411765 -127.08499 631.68386)" font-size="8.9664" font-family="NimbusRomNo9L"><tspan y="-512.678" x="201.4448">3</tspan></text>
<text xml:space="preserve" transform="matrix(.9411765 0 -0 .9411765 -127.08499 631.68386)" font-size="8.9664" font-family="NimbusRomNo9L"><tspan y="-512.678" x="205.928 288.32026 359.9618 423.03147 427.51466 429.75627 434.23945">]--0.25</tspan></text>
<text xml:space="preserve" transform="matrix(.9411765 0 -0 .9411765 -127.08499 631.68386)" font-size="5.9776" font-family="CMSY6" font-style="italic"><tspan y="-516.487" x="438.719">&#x21e4;</tspan></text>
<text xml:space="preserve" transform="matrix(.9411765 0 -0 .9411765 -127.08499 631.68386)" font-size="8.9664" font-family="SFTT0900"><tspan y="-502.715" x="149.155 153.86147 158.56793 163.2744 167.98087 172.68733 177.3938 182.10027 186.80673 191.5132">AgentLM-7b</tspan></text>
<text xml:space="preserve" transform="matrix(.9411765 0 -0 .9411765 -127.08499 631.68386)" font-size="8.9664" font-family="NimbusRomNo9L"><tspan y="-502.715" x="198.459">[</tspan></text>
<text fill="#00007f" xml:space="preserve" transform="matrix(.9411765 0 -0 .9411765 -127.08499 631.68386)" font-size="8.9664" font-family="NimbusRomNo9L"><tspan y="-502.715" x="201.4448 205.928">51</tspan></text>
<text xml:space="preserve" transform="matrix(.9411765 0 -0 .9411765 -127.08499 631.68386)" font-size="8.9664" font-family="NimbusRomNo9L"><tspan y="-502.715" x="210.4112 281.96308 286.4463 288.6879 293.17109 351.36305 355.84626 360.32948 362.57109 367.05427 425.18345 429.66664 431.90824 436.39143">]2.9915.650.86</tspan></text>
<text xml:space="preserve" transform="matrix(.9411765 0 -0 .9411765 -127.08499 631.68386)" font-size="8.9664" font-family="SFTT0900"><tspan y="-492.753" x="149.155 153.86147 158.56793 163.2744 167.98087 172.68733 177.3938 182.10027 186.80673 191.5132 196.21967 200.92613 205.6326 210.33907 215.04553">CodeActAgent-7b</tspan></text>
<text xml:space="preserve" transform="matrix(.9411765 0 -0 .9411765 -127.08499 631.68386)" font-size="8.9664" font-family="NimbusRomNo9L"><tspan y="-492.753" x="221.99">[</tspan></text>
<text fill="#00007f" xml:space="preserve" transform="matrix(.9411765 0 -0 .9411765 -127.08499 631.68386)" font-size="8.9664" font-family="NimbusRomNo9L"><tspan y="-492.753" x="224.9758 229.459">41</tspan></text>
<text xml:space="preserve" transform="matrix(.9411765 0 -0 .9411765 -127.08499 631.68386)" font-size="8.9664" font-family="NimbusRomNo9L"><tspan y="-492.753" x="233.9422 281.96626 286.44947 288.69108 293.17427 353.60783 358.091 360.3326 364.8158 425.18659 429.6698 431.9114 436.3946">]3.139.782.34</tspan></text>
<text xml:space="preserve" transform="matrix(.9411765 0 -0 .9411765 -127.08499 631.68386)" font-size="8.9664" font-family="SFTT0900"><tspan y="-482.79" x="149.155 153.86147 158.56793 163.2744 167.98087 172.68733 177.3938 182.10027 186.80673 191.5132 196.21967 200.92613 205.6326 210.33907 215.04553 219.752 224.45847">AutoWebGLM-7b(S1)</tspan></text>
<text xml:space="preserve" transform="matrix(.9411765 0 -0 .9411765 -127.08499 631.68386)" font-size="8.9664" font-family="NimbusRomNo9L"><tspan y="-482.79" x="231.402">[</tspan></text>
<text fill="#00007f" xml:space="preserve" transform="matrix(.9411765 0 -0 .9411765 -127.08499 631.68386)" font-size="8.9664" font-family="NimbusRomNo9L"><tspan y="-482.79" x="234.3878 238.871">19</tspan></text>
<text xml:space="preserve" transform="matrix(.9411765 0 -0 .9411765 -127.08499 631.68386)" font-size="8.9664" font-family="NimbusRomNo9L"><tspan y="-482.79" x="243.3542 288.3207 359.96226 423.03193 427.51515 429.75675 434.23994">]--2.50</tspan></text>
<text xml:space="preserve" transform="matrix(.9411765 0 -0 .9411765 -127.08499 631.68386)" font-size="5.9776" font-family="CMSY6" font-style="italic"><tspan y="-486.599" x="438.719">&#x21e4;</tspan></text>
<text xml:space="preserve" transform="matrix(.9411765 0 -0 .9411765 -127.08499 631.68386)" font-size="8.9664" font-family="SFTT0900"><tspan y="-472.827" x="149.155 153.86147 158.56793 163.2744 167.98087 172.68733 177.3938 182.10027 186.80673 191.5132 196.21967 200.92613">AgentFlan-7b</tspan></text>
<text xml:space="preserve" transform="matrix(.9411765 0 -0 .9411765 -127.08499 631.68386)" font-size="8.9664" font-family="NimbusRomNo9L"><tspan y="-472.827" x="207.871">[</tspan></text>
<text fill="#00007f" xml:space="preserve" transform="matrix(.9411765 0 -0 .9411765 -127.08499 631.68386)" font-size="8.9664" font-family="NimbusRomNo9L"><tspan y="-472.827" x="210.8568">5</tspan></text>
<text xml:space="preserve" transform="matrix(.9411765 0 -0 .9411765 -127.08499 631.68386)" font-size="8.9664" font-family="NimbusRomNo9L"><tspan y="-472.827" x="215.34 281.96934 286.4525 288.69413 293.1773 351.3603 355.8435 360.32673 362.56834 367.0515 425.18968 429.67286 431.91447 436.39765">]3.8020.870.62</tspan></text>
<text xml:space="preserve" transform="matrix(.9411765 0 -0 .9411765 -127.08499 631.68386)" font-size="8.9664" font-family="SFTT0900"><tspan y="-462.865" x="149.155 153.86147 158.56793 163.2744 167.98087 172.68733 177.3938 182.10027 186.80673 191.5132 196.21967 200.92613 205.6326 210.33907">Lemur-chat-70b</tspan></text>
<text xml:space="preserve" transform="matrix(.9411765 0 -0 .9411765 -127.08499 631.68386)" font-size="8.9664" font-family="NimbusRomNo9L"><tspan y="-462.865" x="217.283">[</tspan></text>
<text fill="#00007f" xml:space="preserve" transform="matrix(.9411765 0 -0 .9411765 -127.08499 631.68386)" font-size="8.9664" font-family="NimbusRomNo9L"><tspan y="-462.865" x="220.2688 224.752">46</tspan></text>
<text xml:space="preserve" transform="matrix(.9411765 0 -0 .9411765 -127.08499 631.68386)" font-size="8.9664" font-family="NimbusRomNo9L"><tspan y="-462.865" x="229.2352 279.725 284.2082 288.6914 290.933 295.4162 351.36656 355.84974 360.33296 362.57456 367.05775 425.18693 429.6701 431.9117 436.3949">]14.2821.302.95</tspan></text>
<text xml:space="preserve" transform="matrix(.9411765 0 -0 .9411765 -127.08499 631.68386)" font-size="8.9664" font-family="SFTT0900"><tspan y="-452.902" x="149.155 153.86147 158.56793 163.2744 167.98087 172.68733 177.3938 182.10027 186.80673 191.5132 196.21967">AgentLM-70b</tspan></text>
<text xml:space="preserve" transform="matrix(.9411765 0 -0 .9411765 -127.08499 631.68386)" font-size="8.9664" font-family="NimbusRomNo9L"><tspan y="-452.902" x="203.165">[</tspan></text>
<text fill="#00007f" xml:space="preserve" transform="matrix(.9411765 0 -0 .9411765 -127.08499 631.68386)" font-size="8.9664" font-family="NimbusRomNo9L"><tspan y="-452.902" x="206.1508 210.634">51</tspan></text>
<text xml:space="preserve" transform="matrix(.9411765 0 -0 .9411765 -127.08499 631.68386)" font-size="8.9664" font-family="NimbusRomNo9L"><tspan y="-452.902" x="215.1172 279.72013 284.2033 288.68653 290.92814 295.41133 351.36167 355.84486 360.32807 362.56968 367.05287 425.191 429.6742 431.9158 436.399">]10.6136.523.07</tspan></text>
<path transform="matrix(.9411765,0,0,-.9411765,7.6707918,210.15818)" stroke-width=".498" stroke-linecap="butt" stroke-miterlimit="10" stroke-linejoin="miter" fill="none" stroke="#000000" d="M0 0H325.645"/>
<text xml:space="preserve" transform="matrix(.9411765 0 -0 .9411765 -127.08499 631.68386)" font-size="8.9664" font-family="SFTT0900"><tspan y="-437.734" x="149.155 153.86147 158.56793 163.2744 167.98087 172.68733 177.3938 182.10027 186.80673 191.5132 196.21967 200.92613 205.6326 210.33907 215.04553 219.752 224.45847 229.16493 233.86243 238.5689">Synatra-CodeLlama-7b</tspan></text>
<text xml:space="preserve" transform="matrix(.9411765 0 -0 .9411765 -127.08499 631.68386)" font-size="8.9664" font-family="NimbusRomNo9L"><tspan y="-437.734" x="279.724 284.2072 288.69044 290.93205 295.41523 351.36558 355.84877 360.33198 362.57359 367.05677 425.18595 429.66914 431.91075 436.39393">15.8538.206.28</tspan></text>
<path transform="matrix(.9411765,0,0,-.9411765,7.6707918,224.57517)" stroke-width=".797" stroke-linecap="butt" stroke-miterlimit="10" stroke-linejoin="miter" fill="none" stroke="#000000" d="M0 0H325.645"/>
<text xml:space="preserve" transform="matrix(.9407058 0 -0 .94164749 -127.08499 631.68386)" font-size="9.957617" font-family="NimbusRomNo9L"><tspan y="-400.9394" x="108.05405 113.03286 117.45403 122.432849 127.41165">hand,</tspan></text>
<text xml:space="preserve" transform="matrix(.9411765 0 -0 .9411765 -127.08499 631.68386)" font-size="9.9626" font-family="SFTT1000"><tspan y="-401.14" x="132.332 137.56137 142.79074 148.02011 153.24948 158.47885 163.70822 168.93759 174.16696 179.39633 184.6257 189.85507 195.08444 200.31381 205.54319 210.77256 216.00193">Synatra-CodeLlama</tspan></text>
<text xml:space="preserve" transform="matrix(.9407058 0 -0 .94164749 -127.08499 631.68386)" font-size="9.957617" font-family="NimbusRomNo9L"><tspan y="-400.9394" x="223.83396 226.60218 231.02336 234.16 239.13881 243.56 246.32822 252.7011 257.12226 262.37989 265.14814 270.12693 277.0475 282.02629 286.44749 291.4263 295.84748 299.16337 301.9316 308.85215 316.04154 320.4627 325.44154 328.75743 333.73625 338.1574 342.03096 346.45213 353.92036 356.68858 361.10978 364.98329 369.9621 376.33497 380.75617 385.73497 393.21315 398.19194 403.17076 407.59196 413.95487 418.93367 423.91249 429.18006 433.60127 438.58006 443.00126 447.98005 452.95887 459.87944 464.3006 469.13005 476.59828 481.57707 485.99827 488.76649 493.18766 497.0612 501.48237">targetsatthegenericweb-basedtasksanddoesnotencodeanydataset</tspan></text>
<text xml:space="preserve" transform="matrix(.95054158 0 -0 .93190369 -127.08499 631.68386)" font-size="10.061731" font-family="NimbusRomNo9L"><tspan y="-394.11396" x="106.93594 111.40336 114.753917 117.55108 120.34824 123.59818 128.06558 132.53299 135.33016 142.33312 147.364 152.39487 155.74542 158.54259 163.57346 171.68323 174.4804 177.83095 182.29836 185.09552 190.12639 192.92356 197.9544 202.98529 210.42092 216.56864 221.44858 225.91597 234.03578 236.83295 241.86382 246.89469 251.92555 256.95643 265.07627 269.54368 272.34083 278.21687 281.014 286.0449 289.39546 293.86289 301.41926 306.45014 310.91755 315.94844 320.41584 325.44673 333.27473 337.74217 341.0927 346.1236 353.1266 357.594 360.94459 368.49089 372.95829 377.98918 385.8172 390.84806 393.6452 398.11265 400.9098 405.3772 408.17436 416.2942 421.32505 425.79249 428.58964 433.62049 436.97108 442.00193 447.0328 452.9189 457.9498 462.98066 466.33125 469.1284 474.15925 482.269 487.2999 491.7673 494.56446">artifactsduringtraining.Eventhoughallthreebenchmarksarecompletelyheld-outduringdata</tspan></text>
<text xml:space="preserve" transform="matrix(.9411765 0 -0 .9411765 -127.08499 631.68386)" font-size="9.9626" font-family="NimbusRomNo9L"><tspan y="-379.322" x="108 112.9813 117.40469 122.385997 126.80939 130.12694 134.55034 137.31995 140.08956 145.07085 150.05214">generation,</tspan></text>
<text xml:space="preserve" transform="matrix(.9411765 0 -0 .9411765 -127.08499 631.68386)" font-size="9.9626" font-family="SFTT1000"><tspan y="-379.322" x="155.033 160.26238 165.49175 170.72112 175.95049 181.17986 186.40923 191.6386 196.86797 202.09734 207.3267 212.55608 217.78545 223.01482 228.24419 233.47356 238.70293">Synatra-CodeLlama</tspan></text>
<text xml:space="preserve" transform="matrix(.9411765 0 -0 .9411765 -127.08499 631.68386)" font-size="9.9626" font-family="NimbusRomNo9L"><tspan y="-379.322" x="246.419 250.8424 255.26581 260.2471 263.0167 267.19105 272.0229 276.4463 282.8124 287.2358 292.2171 297.1984 301.07386 303.84346 307.7189 310.4885 314.9119 319.8932 325.15345 329.0289 334.0102 338.9915 343.4149 346.73243 349.502 354.4833 360.2915 365.2728 369.6962 373.01374 376.33128 381.31257 384.6301 392.381 396.8044 401.7857 406.2091 413.12318 418.10447 425.57643 429.99983 432.7694 438.02967 443.01097 447.43437 452.41566 456.83906 461.82035 469.57127 473.99467 477.3122 482.2935 486.16896">achievesconsistentsuperiorperformanceonallbenchmarks.</tspan></text>
<text xml:space="preserve" transform="matrix(.9411765 0 -0 .9411765 -127.08499 631.68386)" font-size="9.9626" font-family="NimbusRomNo9L" font-weight="bold"><tspan y="-353.597" x="108 112.9813 115.47195 130.41585 137.60884 143.14804 148.12934 150.89894 155.88024 159.75569 162.5253">6.2Analysis</tspan></text>
<text xml:space="preserve" transform="matrix(.95054158 0 -0 .93190369 -127.08499 631.68386)" font-size="10.061731" font-family="NimbusRomNo9L" font-weight="bold"><tspan y="-336.42964" x="106.93594 116.99768 122.591999 127.62286 133.8712 139.46553 144.49642 148.9638 155.78566 159.13622 164.73055 172.09572 180.47714 185.50801 191.10234 195.56974 201.26468 204.06185 208.52924 213.56012 217.87659 226.37876 229.72931 234.0156 239.04648 250.3257 253.67627 259.2706 266.63578 270.5498 275.5807 281.17503 284.52558 290.1199 294.58735 297.9379 300.73506 308.1103 313.70463 318.7355 322.08607 327.11695">Whatdoesthemodellearnfromthesyntheticdata?</tspan></text>
<text xml:space="preserve" transform="matrix(.95054158 0 -0 .93190369 -127.08499 631.68386)" font-size="10.061731" font-family="NimbusRomNo9L"><tspan y="-336.42964" x="342.00889 349.27345 354.30433 360.55265 365.02009 370.05094 374.51838 377.31553 382.34638 386.2604 389.05757 395.86936 399.7834 404.81428 409.84513 414.876 419.3434 423.25746 426.0546 432.87648 435.6736 440.70448 445.1719 450.86683 453.66398 458.69486 466.06004 471.0909 475.55833 479.47236 483.93977 486.7369 489.53407 494.56495">Ouranalysissuggeststhatthebaseline</tspan></text>
<text xml:space="preserve" transform="matrix(.9326674 0 -0 .9497631 -127.08499 631.68386)" font-size="9.872529" font-family="NimbusRomNo9L"><tspan y="-319.292" x="108.98533 113.36874 117.75214 122.68841 127.62467 130.36925 133.6568 138.0402 144.38825 148.77165 152.61208 156.45249 160.8359 165.77216 168.51674 171.2613 175.64472 180.90679 185.84305 190.7793 195.45888 202.58684 205.33142 209.71483 214.6511 219.58734 226.48825 230.87166 236.12386 243.80469 248.74095 251.48552 254.23009 256.97468 261.91093 264.6555 271.5564 274.30097 278.42768 283.21586 287.59925 290.34385 296.70173 299.9893 303.27687 308.2131 318.40159 322.242 327.17826 332.1145 334.85908 339.79536 344.17875 346.9233 349.6679 356.55894 361.49519 365.8786 368.62318 373.0066 378.59446 384.62657 389.56285 396.4637 400.84715 404.1347 407.42228 412.35853 418.15373 421.44129 425.82469 428.56925 432.95268 439.31059 442.59815 447.5344 453.3296 458.26585 461.0104 464.05119 467.33876 471.72218 475.00975 479.39314 484.3294 489.59147 493.97486 497.26243 500.55 505.48625">acquiresessentialknowledgeatmultiplelevelsfromsyntheticdata.Theerrorratesfordifferenterror</tspan></text>
<text xml:space="preserve" transform="matrix(.93171718 0 -0 .9507318 -127.08499 631.68386)" font-size="9.862471" font-family="NimbusRomNo9L"><tspan y="-308.1673" x="109.09648 111.83824 116.769489 121.70072 126.07965 132.2437 136.62265 139.90685 146.61333 150.44983 155.38106 160.05587 167.17658 174.43535 177.17713">typesareshownin</tspan></text>
<text fill="#00007f" xml:space="preserve" transform="matrix(.93171718 0 -0 .9507318 -127.08499 631.68386)" font-size="9.862471" font-family="NimbusRomNo9L"><tspan y="-308.1673" x="184.43589 189.65312 194.03208 198.9633 201.70508 208.41156">Table2</tspan></text>
<text xml:space="preserve" transform="matrix(.93171718 0 -0 .9507318 -127.08499 631.68386)" font-size="9.862471" font-family="NimbusRomNo9L"><tspan y="-308.1673" x="213.3428 218.8658 225.9865 231.05582 233.79759 238.72882 245.42545 248.16722 252.85189 262.30015 265.0419 269.16444 273.94773 278.32667 281.06843 285.90104 289.73753 294.66877 299.6 302.34178 307.273 311.65196 314.3937 317.13548 323.8321 328.76335 333.14228 335.88404 342.59049 347.52174 351.9007 354.64247 359.5737 365.73774 368.4795 373.41075 380.1172 387.7902 392.72145 397.65269 402.03166">.Atthelowlevel,syntheticdatahelpsthemodel</tspan></text>
<text xml:space="preserve" transform="matrix(.93171718 0 -0 .9507318 -127.08499 631.68386)" font-size="9.862471" font-family="NimbusRomNo9L" font-style="italic"><tspan y="-308.1673" x="407.09657 411.4755 418.5962 421.33796 426.40724 430.78617 435.7174 438.45918 441.20094 448.45973 453.39097 457.7699 460.51167 463.25343 468.18467 473.1159">emitvalidactions</tspan></text>
<text xml:space="preserve" transform="matrix(.93171718 0 -0 .9507318 -127.08499 631.68386)" font-size="9.862471" font-family="NimbusRomNo9L"><tspan y="-308.1673" x="476.94859 482.47157 487.8072 492.73844 498.34028 502.5713 507.50254">.Forex-</tspan></text>
<text xml:space="preserve" transform="matrix(.93361666 0 -0 .94879749 -127.08499 631.68386)" font-size="9.882578" font-family="NimbusRomNo9L"><tspan y="-297.9742" x="108.87452 113.26239 120.951038 125.89232 128.63968 133.02754 137.99849 145.13372 150.075 152.82236 155.56972 162.45787 166.84574 171.78702 176.7283 180.01921 184.9605 189.90178 192.64914 200.3378 204.72565 207.47303 211.86089 214.60825 222.04982 226.9911 231.93239 242.66487 247.60616 253.38748 257.77534 262.1632 264.91056 267.6579 272.59919 277.5405 283.88514 288.82643 292.11735 296.50523 301.4465 304.19386 308.58174 311.32908 315.71696 323.15855 328.09983 335.54145 338.2888 343.2301 350.11827 355.05955 359.44743 363.29176 370.1799 377.86857 382.80986 387.75117 392.13905">ample,whileapproximately95%ofactionspredictedbythebasemodel</tspan></text>
<text xml:space="preserve" transform="matrix(.9411765 0 -0 .9411765 -127.08499 631.68386)" font-size="9.9626" font-family="SFTT1000"><tspan y="-300.387" x="394.189 399.41838 404.64775 409.8771 415.10649 420.33586 425.56523 430.7946 436.02397 441.25334 446.4827 451.71208 456.94145 462.1708 467.40019 472.62956 477.85893 483.0883 488.31767 493.53709 498.76646">CodeLlama-instruct-7b</tspan></text>
<text xml:space="preserve" transform="matrix(.94727417 0 -0 .9351181 -127.08499 631.68386)" font-size="10.027145" font-family="NimbusRomNo9L"><tspan y="-291.35346" x="107.304798 110.09234 114.71485 119.527889 124.54145 127.328998 132.19216 139.12091 141.90847 146.92203 149.70957 154.16162 157.50066 161.95272 166.40477 169.1923 171.97986 176.99343 184.4837 191.7233 194.51084 197.29839 204.77864 209.7922 214.80577 219.81934 223.15839 227.47005 232.48361 235.27117 239.1717 241.95926 246.41132 251.42488 256.6791 261.13117 263.9187 268.37077 276.17189 280.62394 285.63749 288.42503 294.8023 299.81587 307.30613 310.09367 315.10725 322.03599 329.27558 333.72764 341.2179 346.23146 350.6835 355.69709 360.14915">involveinteractingwithnon-existentelementsonthewebpage,</tspan></text>
<text xml:space="preserve" transform="matrix(.9411765 0 -0 .9411765 -127.08499 631.68386)" font-size="9.9626" font-family="SFTT1000"><tspan y="-289.478" x="367.494 372.72337 377.95274 383.1821 388.41148 393.64085 398.8702">Synatra</tspan></text>
<text xml:space="preserve" transform="matrix(.94727417 0 -0 .9351181 -127.08499 631.68386)" font-size="10.027145" font-family="NimbusRomNo9L"><tspan y="-291.35346" x="403.9708 407.30986 411.76188 416.77546 421.78904 426.2411 430.6931 437.0704 439.85795 444.8715 447.65907 454.03633 458.48838 461.82743 465.16648 470.18006 475.98579 478.77333 486.26359 489.05113 494.0647 497.96528">reducesthiserrortojust</tspan></text>
<text xml:space="preserve" transform="matrix(.95054158 0 -0 .93190369 -127.08499 631.68386)" font-size="10.061731" font-family="NimbusRomNo9L"><tspan y="-281.34089" x="106.93594 111.96681 114.48224 119.51311 127.89453 133.56935 139.71707 144.74794 147.5451 153.96448 156.76165 161.54097 171.31092 175.7783 179.12888 182.47943 187.5103 193.35617 196.70673 201.17414 203.9713 210.94408 213.74124 220.15056 224.61797 227.41513 232.44599 236.36 240.8274 246.68334 249.4805 257.00669 259.80384 264.83473 269.30213 274.60466 279.63554 285.49147 288.2886 292.75605 295.92549 300.95637 305.42378 311.26966 319.0977 324.12858 329.15943 333.62687 336.424 342.84339 346.75743 351.7883 356.2557 363.7819 368.24934">0.7%.Thislowerrorrateisclosertothatoflargermodelssuchas</tspan></text>
<text xml:space="preserve" transform="matrix(.9411765 0 -0 .9411765 -127.08499 631.68386)" font-size="9.9626" font-family="SFTT1000"><tspan y="-278.569" x="378.397 383.62638 388.85575 394.0851 399.31449 404.54386 409.77323 415.0026 420.23197 425.46134 430.6907 435.92008 441.14945 446.3788 451.6082">Llama3-chat-70b</tspan></text>
<text xml:space="preserve" transform="matrix(.95054158 0 -0 .93190369 -127.08499 631.68386)" font-size="10.061731" font-family="NimbusRomNo9L"><tspan y="-281.34089" x="454.8342 459.30165 464.3325">and</tspan></text>
<text xml:space="preserve" transform="matrix(.9411765 0 -0 .9411765 -127.08499 631.68386)" font-size="9.9626" font-family="SFTT1000"><tspan y="-278.569" x="476.559 481.78837 487.01774 492.2471 497.47648">GPT-4</tspan></text>
<text xml:space="preserve" transform="matrix(.95054158 0 -0 .93190369 -127.08499 631.68386)" font-size="10.061731" font-family="NimbusRomNo9L"><tspan y="-281.34089" x="497.75218">,</tspan></text>
<text xml:space="preserve" transform="matrix(.95054158 0 -0 .93190369 -127.08499 631.68386)" font-size="10.061731" font-family="NimbusRomNo9L"><tspan y="-270.32334" x="106.58048 113.84505 118.875919 121.67308 126.14049 134.0792 138.5466 141.89716 149.26235 154.29322 158.76062 161.55779 164.35495 168.82236 175.08074 179.54814 185.25315 188.6037 193.63457 196.43173 199.2289 204.00824 211.2728 214.06996 219.10085 227.03955 231.50695 236.53781 244.36583 249.3967 252.19387 256.51036 264.44905 267.2462 272.27708 276.1911 278.98826 282.3388 287.3697 291.8371 294.63426 297.4314 302.46229 307.49317 314.315 321.5796 324.37675 327.1739 335.1025 342.93055 347.96144 350.75859 353.55574 356.35289 361.38374 364.18089 371.55616 374.9067 379.3741 384.405 389.43589 392.23304 395.5836 400.05104 407.87904 412.34648 417.37733 420.17448 424.0885 430.9808 438.24537 443.27626 448.30714 451.10429 453.90144 456.69859 461.72944 466.7603 471.22773 474.02488 476.82203 481.20896 486.7429 489.54005 494.57093">whicharebetteratfollowingcomplexinstructionswithmultiplerequirements.Additionally,the</tspan></text>
<text xml:space="preserve" transform="matrix(.95054158 0 -0 .93190369 -127.08499 631.68386)" font-size="10.061731" font-family="NimbusRomNo9L"><tspan y="-259.3058" x="106.93594 110.84996 115.88082 120.91169 123.708858 128.73972 133.20713 136.00428 138.80144 146.26725 151.29811 155.76552 158.56269 166.01842 168.81558 176.6436 181.67449 185.02504 189.91503 194.79497 199.26236 206.17478 208.97194 214.00279 221.45853 229.28655 234.31742 239.34828 243.81569 246.61286 249.42008 256.3325 260.7999 265.83079 268.62794 271.42509 274.22224 277.01939 285.04866 287.8458">syntheticdataimprovesthemodel&#x2019;sabilityto</tspan></text>
<text xml:space="preserve" transform="matrix(.95054158 0 -0 .93190369 -127.08499 631.68386)" font-size="10.061731" font-family="NimbusRomNo9L" font-style="italic"><tspan y="-259.3058" x="295.87098 300.90187 305.9327 310.9636 315.431 319.24443 323.15846 325.9556 330.98646 336.01734 344.0466 350.75779 355.2252 363.25447 368.28535 373.21559 378.14585 382.61326">understandwebpages</tspan></text>
<text xml:space="preserve" transform="matrix(.95054158 0 -0 .93190369 -127.08499 631.68386)" font-size="10.061731" font-family="NimbusRomNo9L"><tspan y="-259.3058" x="389.52308 397.3511 402.382 405.73255 413.19837 417.66578 422.1332 426.60063 431.6315 434.98207 439.4495 442.24665 446.71406 449.5112 453.89814 461.06208 466.4149 474.44416 478.9116 482.82563 486.73963 491.20707 495.1211">moreaccurately.Toassess</tspan></text>
<text xml:space="preserve" transform="matrix(.95054158 0 -0 .93190369 -127.08499 631.68386)" font-size="10.061731" font-family="NimbusRomNo9L"><tspan y="-248.28823" x="106.93594 109.73311 114.76398 117.56114 121.47515 127.381389 134.64595 142.313 150.14102 154.60843 159.07582 162.98984 168.02069 171.37125 179.0383 181.83547 186.86632 194.54341 197.89397 202.36136 205.15853 207.95569 216.1862 221.21707 227.76728 230.56444 235.2029 239.99228 244.45969 247.25685 250.05402 258.28453 262.75196 267.21937 270.0165 272.81367 277.84455 282.8754 286.78944 292.69566 295.4928 300.52369 304.9911 307.78825 312.81913 317.85 320.64717 325.678 333.90855 338.9394 343.97029 346.76744 355.008 357.79508 362.43357 367.22294 371.69038 374.48753 377.28468">this,wemeasuretheratioofinvalidactions,includingbothinvalid</tspan></text>
<text xml:space="preserve" transform="matrix(.9411765 0 -0 .9411765 -127.08499 631.68386)" font-size="9.9626" font-family="SFTT1000"><tspan y="-245.842" x="389.353 394.58238 399.81175 405.0411 410.27049">click</tspan></text>
<text xml:space="preserve" transform="matrix(.95054158 0 -0 .93190369 -127.08499 631.68386)" font-size="10.061731" font-family="NimbusRomNo9L"><tspan y="-248.28823" x="414.6085 419.07594 424.10679">and</tspan></text>
<text xml:space="preserve" transform="matrix(.9411765 0 -0 .9411765 -127.08499 631.68386)" font-size="9.9626" font-family="SFTT1000"><tspan y="-245.842" x="436.643 441.87239 447.10176 452.33113">type</tspan></text>
<text xml:space="preserve" transform="matrix(.95054158 0 -0 .93190369 -127.08499 631.68386)" font-size="10.061731" font-family="NimbusRomNo9L"><tspan y="-248.28823" x="453.05198 458.9582 466.22276 471.25364 475.72105 479.07164 486.73869 489.53584 494.56669">,wherethe</tspan></text>
<text xml:space="preserve" transform="matrix(.95054158 0 -0 .93190369 -127.08499 631.68386)" font-size="10.061731" font-family="NimbusRomNo9L"><tspan y="-237.27068" x="106.93594 111.96681 115.31737 119.78478 124.81564 127.6128 132.0802 134.87737 139.34477 147.14261 151.61002 156.07743 158.87459 161.67174 166.7026 174.49039 178.9578 181.75496 184.55213 189.01953 196.84755 201.8784 204.67557 211.35657 214.15373 221.94152 224.73868 229.76955 232.56671 237.03412 240.38468 244.85208 249.31949 254.8836 262.14817 264.9453 267.74247 275.5403 280.00773 287.7955 292.2629 295.06007 299.5275 307.3555 311.82295 316.8538 322.4179 325.21507 330.24595 334.71336 340.27748 343.07463 349.74555 354.77644 359.80729 365.3714 369.83885 372.63597 375.4331 379.90055 384.9314 389.39884 394.42973 397.22688 404.45118">predictedactionattemptstointeractwithanelementthatisnotclickable(</tspan></text>
<text xml:space="preserve" transform="matrix(.95054158 0 -0 .93190369 -127.08499 631.68386)" font-size="10.061731" font-family="NimbusRomNo9L" font-style="italic"><tspan y="-237.27068" x="407.80619 412.12269 414.63813 419.5281 422.04356">e.g.,</tspan></text>
<text xml:space="preserve" transform="matrix(.95054158 0 -0 .93190369 -127.08499 631.68386)" font-size="10.061731" font-family="NimbusRomNo9L"><tspan y="-237.27068" x="427.39329 434.62767 439.6585 442.45567 446.9231 451.3905 458.61485 463.6457 469.76325 472.5604 476.87687 481.90776 484.7049 490.82243 495.8533">apieceoftext)or</tspan></text>
<text xml:space="preserve" transform="matrix(.95054158 0 -0 .93190369 -127.08499 631.68386)" font-size="10.061731" font-family="NimbusRomNo9L"><tspan y="-226.25313" x="106.93594 111.96681 116.99768 122.89386 125.691028 130.72188 135.75275 140.22016 145.25102 148.04819 155.60454">nottypable(</tspan></text>
<text xml:space="preserve" transform="matrix(.95054158 0 -0 .93190369 -127.08499 631.68386)" font-size="10.061731" font-family="NimbusRomNo9L" font-style="italic"><tspan y="-226.25313" x="158.95929 163.27577 165.7912 170.6812 173.19664">e.g.,</tspan></text>
<text xml:space="preserve" transform="matrix(.95054158 0 -0 .93190369 -127.08499 631.68386)" font-size="10.061731" font-family="NimbusRomNo9L"><tspan y="-226.25313" x="178.96128 186.5277 191.35732 196.38819 199.18535 201.98252 207.01338 212.04425 215.3948 222.86063 231.56403 239.13045 244.16132 249.1922 253.1062 257.5736 260.9242 265.8041 273.37055 276.1677 281.19859 285.666 291.56217 299.3902 304.42106 309.45195 313.91935 316.7165 323.72956 326.5267 334.6465 337.44367 342.47456 350.041 355.07185 360.10273 365.1336 370.16447 378.29438 381.64494 386.11235 391.14323 396.1741 403.73048 408.76136 413.03758 417.9175 425.48396 430.51484 433.31199 438.34284 446.46269 450.93009 454.28068 457.63124 462.6621 469.1117 472.46229 476.9297 479.72685 484.19425 491.2073 494.00447">abutton).Weobservethatmodelsinthe7b&#x2013;8brangehavehigherrorratesin</tspan></text>
<text xml:space="preserve" transform="matrix(.95054158 0 -0 .93190369 -127.08499 631.68386)" font-size="10.061731" font-family="NimbusRomNo9L"><tspan y="-215.23558" x="106.93594 109.73311 114.76398 117.56114 122.02855 125.379108 130.40999 133.76055 138.22794 141.0251 143.82227 148.85315 156.61075 161.6416 166.10901 170.02303 172.82019 180.02439 187.28894 191.75635 199.52402 203.99141 206.78858 211.24593 219.07395 223.54135 228.5722 231.36937 235.28339 241.66252 247.10591 252.13677 258.22416 261.0213 266.0522 269.95616 272.7533 277.2207 282.2516 286.719 291.1864 296.50907 299.3062 304.3371 311.53126 315.44529 318.24244 321.593 326.62388 331.65476 339.42243 344.4533 352.2109 360.03895 365.0698 370.10069 374.56809">interpretingbasicwebelements.Forinstance,thestrong8bmodel</tspan></text>
<text xml:space="preserve" transform="matrix(.9411765 0 -0 .9411765 -127.08499 631.68386)" font-size="9.9626" font-family="SFTT1000"><tspan y="-213.115" x="383.882 389.11137 394.34074 399.5701 404.79948 410.02885 415.2582 420.48759 425.71696 430.94633 436.1757 441.40507 446.63444 451.8638">Llama3-chat-8b</tspan></text>
<text xml:space="preserve" transform="matrix(.95054158 0 -0 .93190369 -127.08499 631.68386)" font-size="10.061731" font-family="NimbusRomNo9L"><tspan y="-215.23558" x="455.3174 463.14543 465.94258 469.8566 472.65376 477.1212 482.05143 486.51884 491.5497 494.34687">mistakenly</tspan></text>
<text xml:space="preserve" transform="matrix(.9411765 0 -0 .9411765 -127.08499 631.68386)" font-size="9.9626" font-family="SFTT1000"><tspan y="-202.206" x="108 113.22937 118.45874 123.68811 128.91748">click</tspan></text>
<text xml:space="preserve" transform="matrix(.95054158 0 -0 .93190369 -127.08499 631.68386)" font-size="10.061731" font-family="NimbusRomNo9L"><tspan y="-204.21802" x="135.75122 143.14659 148.17746 153.20835 158.23921 161.58977 166.05718 168.85434 171.6515 176.1189 181.14977 185.61716 190.64803 193.44519 200.84055 205.30796 208.10512 212.57253 220.40055 224.86795 229.89882 235.62395 240.50386 245.3838 249.85121 256.12974 261.16059 266.19148 277.50086 282.5317 288.81025 291.6074 296.63829 304.03367 306.8308 309.62797 317.45597 321.9234 327.47749 334.74205 339.77293 342.57008 345.36723">anon-clickableelementover15%ofthetime,while</tspan></text>
<text xml:space="preserve" transform="matrix(.9411765 0 -0 .9411765 -127.08499 631.68386)" font-size="9.9626" font-family="SFTT1000"><tspan y="-202.206" x="356.277 361.50639 366.73576 371.96513 377.1945 382.42387 387.65324">Synatra</tspan></text>
<text xml:space="preserve" transform="matrix(.95054158 0 -0 .93190369 -127.08499 631.68386)" font-size="10.061731" font-family="NimbusRomNo9L"><tspan y="-204.21802" x="391.93708 395.28767 399.75508 404.78596 409.81684 414.28425 418.75166 425.59364 428.39079 433.42167 436.2188 443.0608 447.52824 450.87879 454.22938 459.26023 465.53877 468.3359 476.29475 481.32563 486.35649 491.38737 495.85478">reducesthiserrortounder</tspan></text>
<text xml:space="preserve" transform="matrix(.95054158 0 -0 .93190369 -127.08499 631.68386)" font-size="10.061731" font-family="NimbusRomNo9L"><tspan y="-193.19948" x="106.93594 111.96681 123.45731 127.92471 132.95558 137.98645 141.337 146.36786 150.83527 155.30268 160.33354 163.1307 168.16156 176.30152 179.09868 184.12955 191.69596 196.72682 201.19423 204.54479 207.89534 212.9262 216.27675 224.10477 228.57218 233.60305 238.07045 245.64694 250.67781">6%approachingtheperformanceof</tspan></text>
<text xml:space="preserve" transform="matrix(.9411765 0 -0 .9411765 -127.08499 631.68386)" font-size="9.9626" font-family="SFTT1000"><tspan y="-191.296" x="259.697 264.92637 270.15574 275.3851 280.61448">GPT-4</tspan></text>
<text xml:space="preserve" transform="matrix(.95054158 0 -0 .93190369 -127.08499 631.68386)" font-size="10.061731" font-family="NimbusRomNo9L"><tspan y="-193.19948" x="283.02677 290.52278 296.1171 298.91426 303.9451 308.41255 311.2097 314.00685 318.39375 324.17927 328.64668 334.55293 337.35008 341.81748 345.7315 353.87147 358.33888 363.36976 371.19776 376.22865 379.0258 383.4932 386.29035 389.0875 394.11839 402.24827 405.0454 409.27134 414.15129 418.6187 421.41587">.Finally,attaskcompletionlevel,</tspan></text>
<text xml:space="preserve" transform="matrix(.9411765 0 -0 .9411765 -127.08499 631.68386)" font-size="9.9626" font-family="SFTT1000"><tspan y="-191.296" x="431.452 436.68138 441.91075 447.1401 452.36949 457.59886 462.82823">Synatra</tspan></text>
<text xml:space="preserve" transform="matrix(.95054158 0 -0 .93190369 -127.08499 631.68386)" font-size="10.061731" font-family="NimbusRomNo9L"><tspan y="-193.19948" x="466.55165 470.46568 475.49653 480.28593 487.55049 494.5635">showsa</tspan></text>
<text xml:space="preserve" transform="matrix(.95054158 0 -0 .93190369 -127.08499 631.68386)" font-size="10.061731" font-family="NimbusRomNo9L"><tspan y="-182.18192" x="106.93594 110.84996 113.647129 116.99768 122.02854 127.05941 132.09029 136.5577 143.21855 147.68596 152.71683 155.51399 158.31116 161.10832 163.90549 172.25673 175.0539 183.39508 186.19223 189.5428 194.0102 198.4776 206.81877 211.84963 215.20018 220.23104 225.26192 228.61248 233.07988 236.99388 244.22827 248.69567 253.16307 257.6305 262.66136 266.01194 270.47935 273.2765 277.7439 280.54106 284.92799 293.04783 298.64213 303.673 308.14045 312.60786 315.405 320.99934 325.46675 329.93418 332.73133 335.52848 339.91539 345.96247 353.22706 358.25794 362.72535 371.06654 376.66087 379.458 382.25517 385.0523 390.0832 398.42439 403.45527 408.4861 414.60368 417.95423 422.9851 426.33567 434.1637 441.38807 446.4189 454.76014 462.0247 466.4921 474.84336 479.87425 484.34165 489.37254 493.83995 497.75398">strongerabilitytotrackprogressaccurately.Speci&#xfb01;cally,when&#xfb01;llingoutformsonwebpages,</tspan></text>
<text xml:space="preserve" transform="matrix(.9411765 0 -0 .9411765 -127.08499 631.68386)" font-size="9.9626" font-family="SFTT1000"><tspan y="-169.478" x="108 113.22937 118.45874 123.68811 128.91748 134.14685 139.37622 144.60559 149.83496 155.06433 160.2937 165.52307 170.75244 175.98181 181.21118 186.44055 191.66992">Synatra-CodeLlama</tspan></text>
<text xml:space="preserve" transform="matrix(.93171718 0 -0 .9507318 -127.08499 631.68386)" font-size="9.862471" font-family="NimbusRomNo9L"><tspan y="-167.77466" x="201.40322 204.14499 210.48656 215.41779 220.34902 231.07939 233.82115 238.2001 242.0366 248.37818 251.11995 253.86173 258.69435 263.0733 265.81504 273.26124 276.003 280.93424 285.31318">is74%lesslikelythan</tspan></text>
<text xml:space="preserve" transform="matrix(.9411765 0 -0 .9411765 -127.08499 631.68386)" font-size="9.9626" font-family="SFTT1000"><tspan y="-169.478" x="289.808 295.03739 300.26676 305.49613 310.7255 315.95487 321.18424 326.4136 331.64299 336.87236 342.1017">GPT-4-turbo</tspan></text>
<text xml:space="preserve" transform="matrix(.93171718 0 -0 .9507318 -127.08499 631.68386)" font-size="9.862471" font-family="NimbusRomNo9L"><tspan y="-167.77466" x="353.3645 356.10627 363.54258 366.82676 371.2057 376.13694 380.5159 384.89485 387.6366 392.01554 396.94679 399.68855 407.1347 409.87648 414.8077 419.73896 424.6702 429.91703 432.65879 437.59004 444.48393 448.3204 452.69935 460.37236 467.25636 474.27845 479.2097 482.4939 487.42515 493.7667 496.50846 501.4397 504.18147">torepeatedlyinputthesamewordsinto</tspan></text>
<text xml:space="preserve" transform="matrix(.9331422 0 -0 .9492799 -127.08499 631.68386)" font-size="9.877555" font-family="NimbusRomNo9L"><tspan y="-157.21541" x="108.92988 111.67584 116.614627 123.509159 127.351528 131.73715 139.42189 146.3263 151.81822 156.20384 158.9498 163.88858 168.86687 175.76142 180.14704 185.08582 192.77056 200.45529 205.39408 212.85164 217.23726 220.52649 223.81572 228.7545 234.55265 237.2986 244.74629 252.43103 257.3698 262.3086 266.69425 269.44023 273.2826 278.8733 284.90849 289.84724 292.5932 298.9445 301.69047 306.62925 311.568 314.31398 318.69963 323.08528 325.83125 330.2169 336.57804 339.324 344.2628 348.6484 353.9033 358.84208 363.78083 369.57896 373.42134 378.3601 383.29887 386.04484 390.9836 395.36924 398.11524 400.8612 407.76564 412.70439 417.09004 419.836 426.73057 431.1162 436.05497 440.4406 445.37937 448.12538 452.511 458.86228 461.60826 466.54704 473.45146 481.1362 486.07496 491.01374 495.39936 500.65425 503.4002">thesame&#xfb01;eld,acommonerrorinmodels.Thisindicatesthatoursyntheticdataenablesthemodelto</tspan></text>
<text xml:space="preserve" transform="matrix(.944465 0 -0 .9378995 -127.08499 631.68386)" font-size="9.997409" font-family="NimbusRomNo9L"><tspan y="-148.17594" x="107.62396 115.40195 120.40065 123.72978 130.65799 135.6567 138.98584 143.42469 147.86354 150.64282 154.53182 158.97068 161.74994 169.248 172.57715 177.016 181.45485 186.45357 191.45227 196.45098 199.23026 203.66912 210.5973 215.03617 220.03487 227.81285 232.81157 235.59084 240.0297 242.80896 247.24782 254.74588 259.18473 263.62358 266.40284 269.18214 274.18086 279.17958 285.5579 289.99674 294.99546 302.4935 305.2728 310.2715 314.71037 319.70906 322.48835 325.26765 328.59678 336.08485 338.8641 343.86283 350.80104 354.13014 358.56898 366.347 370.78584 373.5651 378.5638 381.3431 386.34184 393.82987 397.71888 400.49818 404.937 409.9357 416.32408 421.32279 425.7616 430.20045 435.19917 439.638 447.12605 449.90534 457.4034 461.84223 466.28108 471.2798 474.05909 478.248 483.09675 490.02494 492.80424 497.80293">morepreciselyrecognizecompletedactionsandidentifytheremainingstepsneededtoachievethe</tspan></text>
<text xml:space="preserve" transform="matrix(.9411765 0 -0 .9411765 -127.08499 631.68386)" font-size="9.9626" font-family="NimbusRomNo9L"><tspan y="-136.751" x="108 112.9813 117.9626 122.385997 125.155597 130.73465 139.5914 144.5727 147.89025 154.80429 159.78559 164.76688 169.19028 171.95989 174.72949 177.4991 181.9225 184.69211 187.21265 192.0445 198.95854 202.834 205.6036 210.5849 215.5662 223.03813 227.46154 231.88494 239.35688 244.33817 251.25222 254.56977 259.55107 264.53236 269.51365 276.9856 279.7552 287.22715 294.42015 299.40144 304.38273 308.80613 313.7874 318.7687 321.5383">goal.MorequalitativestudycanbefoundinAppendix</tspan></text>
<text fill="#00007f" xml:space="preserve" transform="matrix(.9411765 0 -0 .9411765 -127.08499 631.68386)" font-size="9.9626" font-family="NimbusRomNo9L"><tspan y="-136.751" x="329.0103">I</tspan></text>
<text xml:space="preserve" transform="matrix(.9411765 0 -0 .9411765 -127.08499 631.68386)" font-size="9.9626" font-family="NimbusRomNo9L"><tspan y="-136.751" x="332.3279">.</tspan></text>
<text xml:space="preserve" transform="matrix(.93171718 0 -0 .9507318 -127.08499 631.68386)" font-size="9.862471" font-family="NimbusRomNo9L" font-weight="bold"><tspan y="-111.24062" x="109.09648 116.217189 121.14842">Can</tspan></text>
<text xml:space="preserve" transform="matrix(.9411765 0 -0 .9411765 -127.08499 631.68386)" font-size="9.9626" font-family="SFTT1000"><tspan y="-112.37" x="127.8 133.02938 138.25875 143.48812 148.71749 153.94686 159.17623">Synatra</tspan></text>
<text xml:space="preserve" transform="matrix(.93171718 0 -0 .9507318 -127.08499 631.68386)" font-size="9.862471" font-family="NimbusRomNo9L" font-weight="bold"><tspan y="-111.24062" x="168.53789 174.02143 180.86598 185.79721 192.09934 196.47829 199.76248 203.04668 207.42562 211.80457 215.08876 217.7319 222.5645 229.40906 234.34029 240.63256 246.11609 251.59963 259.81504 264.7463 272.69544 277.62669 283.11024 288.59379 293.52503 296.80924 301.74049 305.0247 307.76646 312.6977 318.18125 322.01774">beaseffectiveashumanannotations?</tspan></text>
<text xml:space="preserve" transform="matrix(.93171718 0 -0 .9507318 -127.08499 631.68386)" font-size="9.862471" font-family="NimbusRomNo9L"><tspan y="-111.24062" x="337.0172 343.04316 347.97444 354.81898 363.5867 366.32847 371.2597 376.19096 381.1222 389.62367 394.0026 401.39945 406.3307 410.70967 413.4514 417.83036 421.66685 426.04579 431.25315">TheMind2Webdataset[</tspan></text>
<text fill="#00007f" xml:space="preserve" transform="matrix(.9411765 0 -0 .9411765 -127.08499 631.68386)" font-size="9.9626" font-family="NimbusRomNo9L"><tspan y="-112.37" x="430.172">6</tspan></text>
<text xml:space="preserve" transform="matrix(.93171718 0 -0 .9507318 -127.08499 631.68386)" font-size="9.862471" font-family="NimbusRomNo9L"><tspan y="-111.24062" x="439.57096 445.32075 448.0625 452.99375 457.37269 460.11445 465.0457 469.97694 474.3559 480.658 485.58924 490.52049 498.19349 502.57243 507.50367">]includeshuman-</tspan></text>
<text xml:space="preserve" transform="matrix(.95054158 0 -0 .93190369 -127.08499 631.68386)" font-size="10.061731" font-family="NimbusRomNo9L"><tspan y="-102.47057" x="106.93594 111.40336 116.43423 121.46509 126.49596 129.29312 133.76053 136.5577 141.02509 149.28577 152.08293 155.4335 159.9009 162.69806 167.16547 171.63288 174.43004 179.4609 182.81147 185.60863 190.07604 197.21985 200.5704 205.60129 212.18166 216.64905 221.67992 226.71079 230.06134 235.0922 240.12308 242.92024 250.74826 255.21567 258.01283 262.48023 265.27738">annotatedtrajectoriesforapproximately</tspan></text>
<text xml:space="preserve" transform="matrix(.9411765 0 -0 .9411765 -127.08499 631.68386)" font-size="9.9626" font-family="CMR10"><tspan y="-101.461" x="276.258">1</tspan></text>
<text xml:space="preserve" transform="matrix(.9411765 0 -0 .9411765 -127.08499 631.68386)" font-size="9.9626" font-family="CMMI10" font-style="italic"><tspan y="-101.461" x="281.24">k</tspan></text>
<text xml:space="preserve" transform="matrix(.95054158 0 -0 .93190369 -127.08499 631.68386)" font-size="10.061731" font-family="NimbusRomNo9L"><tspan y="-102.47057" x="287.1448 294.4094 298.8768 303.90769 307.25825 312.28913 316.75654 320.67057 325.13798 333.39869 336.19584 340.66325 344.57728 349.60816 356.752 359.54914 367.80986 370.607 373.40415 380.548 383.34516 386.6957 391.16316 393.9603 398.99116 401.7883 406.81919 415.07987 418.9939 423.46134 426.25849 432.1949 439.45945 442.2566 445.05375 453.31446 457.78187 462.2493 466.7167 474.97743 477.77458 481.12513 485.59257 488.38969 492.85713 497.32453">web-basedtasksinitstrainingset,witheachtrajec-</tspan></text>
<text xml:space="preserve" transform="matrix(.95054158 0 -0 .93190369 -127.08499 631.68386)" font-size="10.061731" font-family="NimbusRomNo9L"><tspan y="-91.45303" x="106.93594 109.73311 114.76398 118.11453 127.01916 131.48657 136.51743 140.43143 143.22859 146.02576 151.05663 159.96126 164.99211 170.023 172.53842 177.5693 187.36943 196.0829 204.42406 209.45494 212.8055 217.83635 222.30376 226.77117 230.68517 238.47295 241.27011 246.30098 250.76839 254.68239">torycosting$0.8.Weprocessthese</tspan></text>
<text xml:space="preserve" transform="matrix(.9411765 0 -0 .9411765 -127.08499 631.68386)" font-size="9.9626" font-family="CMR10"><tspan y="-90.552" x="265.643">1</tspan></text>
<text xml:space="preserve" transform="matrix(.9411765 0 -0 .9411765 -127.08499 631.68386)" font-size="9.9626" font-family="CMMI10" font-style="italic"><tspan y="-90.552" x="270.624">k</tspan></text>
<text xml:space="preserve" transform="matrix(.95054158 0 -0 .93190369 -127.08499 631.68386)" font-size="10.061731" font-family="NimbusRomNo9L"><tspan y="-91.45303" x="277.27897 280.0761 283.4267 287.8941 290.69126 295.15867 299.6261 302.42326 307.4541 310.8047 313.60185 318.06925 325.85707 328.6542 333.6851 336.48225">trajectoriesinto</tspan></text>
<text xml:space="preserve" transform="matrix(.9411765 0 -0 .9411765 -127.08499 631.68386)" font-size="9.9626" font-family="CMR10"><tspan y="-90.552" x="348.825">9</tspan></text>
<text xml:space="preserve" transform="matrix(.9411765 0 -0 .9411765 -127.08499 631.68386)" font-size="9.9626" font-family="CMMI10" font-style="italic"><tspan y="-90.552" x="353.807">k</tspan></text>
<text xml:space="preserve" transform="matrix(.95054158 0 -0 .93190369 -127.08499 631.68386)" font-size="10.061731" font-family="NimbusRomNo9L"><tspan y="-91.45303" x="359.64244 364.6733 367.47047 370.821 375.28846 379.75587 386.4268 391.45768 395.92509 403.7531 408.78398 413.81486 417.72889 420.52604 423.8766 428.34403 431.14118 433.93833 438.96919 444.00007 451.78788">directdemonstrations(</tspan></text>
<text xml:space="preserve" transform="matrix(.9411765 0 -0 .9411765 -127.08499 631.68386)" font-size="9.9626" font-family="CMR10"><tspan y="-90.552" x="459.669">(</tspan></text>
<text xml:space="preserve" transform="matrix(.9411765 0 -0 .9411765 -127.08499 631.68386)" font-size="9.9626" font-family="CMMI10" font-style="italic"><tspan y="-90.552" x="463.543">s</tspan></text>
<text xml:space="preserve" transform="matrix(.9411765 0 -0 .9411765 -127.08499 631.68386)" font-size="6.9738" font-family="CMMI7" font-style="italic"><tspan y="-89.058" x="468.213">t</tspan></text>
<text xml:space="preserve" transform="matrix(.9411765 0 -0 .9411765 -127.08499 631.68386)" font-size="9.9626" font-family="CMMI10" font-style="italic"><tspan y="-90.552" x="471.721 476.15238">,a</tspan></text>
<text xml:space="preserve" transform="matrix(.9411765 0 -0 .9411765 -127.08499 631.68386)" font-size="6.9738" font-family="CMMI7" font-style="italic"><tspan y="-89.058" x="481.415">t</tspan></text>
<text xml:space="preserve" transform="matrix(.9411765 0 -0 .9411765 -127.08499 631.68386)" font-size="9.9626" font-family="CMR10"><tspan y="-90.552" x="484.922">)</tspan></text>
<text xml:space="preserve" transform="matrix(.95054158 0 -0 .93190369 -127.08499 631.68386)" font-size="10.061731" font-family="NimbusRomNo9L"><tspan y="-91.45303" x="483.9812 491.20555 494.0027">)to</tspan></text>
<text xml:space="preserve" transform="matrix(.95054158 0 -0 .93190369 -127.08499 631.68386)" font-size="10.061731" font-family="NimbusRomNo9L"><tspan y="-80.43548" x="106.93594 114.76398 119.231388 122.02855 126.495967 134.43466 137.23183 142.26268 149.64798 152.99854 158.02942 161.37998 169.208 173.6754 179.3804 184.41126">matchtheformatof</tspan></text>
<text xml:space="preserve" transform="matrix(.9411765 0 -0 .9411765 -127.08499 631.68386)" font-size="9.9626" font-family="SFTT1000"><tspan y="-79.643" x="192.577 197.80637 203.03574 208.2651 213.49448 218.72385 223.95322">Synatra</tspan></text>
<text xml:space="preserve" transform="matrix(.95054158 0 -0 .93190369 -127.08499 631.68386)" font-size="10.061731" font-family="NimbusRomNo9L"><tspan y="-80.43548" x="226.92304 233.83545 242.54892 249.92415 252.72132 257.7522 262.2196 270.16838 274.6358 279.6667 287.4947 292.52558 296.99299 300.34358 307.7188 310.51597 315.54685 322.93217 330.76017 335.79106 340.82194 345.28935 350.99433 353.79148 357.14204 361.60948 364.40663 369.43748 373.9049 381.85368 389.11824 391.91539 394.71253 402.65126 405.4484 410.47929 414.9467 418.86073 426.24604">.Wethencomparethemodeltrainedwiththese9</tspan></text>
<text xml:space="preserve" transform="matrix(.9411765 0 -0 .9411765 -127.08499 631.68386)" font-size="9.9626" font-family="CMMI10" font-style="italic"><tspan y="-79.643" x="435.565">k</tspan></text>
<text xml:space="preserve" transform="matrix(.95054158 0 -0 .93190369 -127.08499 631.68386)" font-size="10.061731" font-family="NimbusRomNo9L"><tspan y="-80.43548" x="439.63249 444.66337 449.6942 457.52226 461.98966 469.92839 474.95927 479.42668 487.2547 492.28556 497.31645">humandemon-</tspan></text>
<text xml:space="preserve" transform="matrix(.95054158 0 -0 .93190369 -127.08499 631.68386)" font-size="10.061731" font-family="NimbusRomNo9L"><tspan y="-69.41793" x="106.93594 110.84996 113.647129 116.99768 121.46509 124.26225 127.05941 132.09029 137.12116 145.20072 148.55127 153.58216 158.61302 166.44104 170.90845 180.11493 185.1458 190.17667 192.97383 198.00469 205.5208 209.9882 215.01908 224.22557 227.02274 232.05359 240.68654 248.51457 253.54543 258.5763 263.0437 270.01649 272.81364 276.1642 280.63163 283.42878 288.45967 292.92707 302.12348 309.38807 312.1852 314.98237 324.18885">strations(humanonly)andthemodeltrainedwith9</tspan></text>
<text xml:space="preserve" transform="matrix(.9411765 0 -0 .9411765 -127.08499 631.68386)" font-size="9.9626" font-family="CMMI10" font-style="italic"><tspan y="-68.734" x="332.492">k</tspan></text>
<text xml:space="preserve" transform="matrix(.95054158 0 -0 .93190369 -127.08499 631.68386)" font-size="10.061731" font-family="NimbusRomNo9L"><tspan y="-69.41793" x="338.8325 343.86338 348.33079 356.1588 361.1897 366.22056 370.13459 372.93174 376.28233 380.74974 383.54689 386.34403 391.3749 396.40577 404.48536 409.51625 413.98365 419.01454 423.48194 426.8325 431.29994 434.09709 438.56449 447.77098 452.80186">demonstrationsgeneratedby</tspan></text>
<text xml:space="preserve" transform="matrix(.9411765 0 -0 .9411765 -127.08499 631.68386)" font-size="9.9626" font-family="SFTT1000"><tspan y="-68.734" x="466.599 471.82838 477.05775 482.2871 487.51649 492.74586 497.97523">Synatra</tspan></text>
<text xml:space="preserve" transform="matrix(.95054158 0 -0 .93190369 -127.08499 631.68386)" font-size="10.061731" font-family="NimbusRomNo9L"><tspan y="-69.41793" x="498.24528">.</tspan></text>
<text xml:space="preserve" transform="matrix(.9411765 0 -0 .9411765 -127.08499 631.68386)" font-size="9.9626" font-family="NimbusRomNo9L"><tspan y="-42.112" x="303.509">8</tspan></text>
</g>
</g>
</svg>
